<?xml version="1.0" encoding="UTF-8"?><svg xmlns="http://www.w3.org/2000/svg" xmlns:xlink="http://www.w3.org/1999/xlink" viewBox="0 0 1600 2500"><defs><style>.cls-1{fill:none;}.cls-2{clip-path:url(#clippath);}.cls-3,.cls-4{fill:#f4676a;}.cls-5{fill:#fff;}.cls-6,.cls-7{fill:#b55633;}.cls-8,.cls-9{fill:#331a26;}.cls-10,.cls-11{fill:#ab203d;}.cls-12{clip-path:url(#clippath-1);}.cls-13{clip-path:url(#clippath-3);}.cls-14{clip-path:url(#clippath-2);}.cls-15{fill:#f7f6f1;}.cls-15,.cls-16,.cls-4,.cls-17,.cls-18,.cls-19,.cls-20,.cls-21,.cls-22,.cls-23,.cls-24,.cls-25,.cls-11,.cls-26,.cls-9,.cls-27,.cls-28,.cls-7,.cls-29,.cls-30,.cls-31,.cls-32,.cls-33,.cls-34,.cls-35,.cls-36{fill-rule:evenodd;}.cls-16{fill:#f9dde2;}.cls-17{fill:#f8cbba;}.cls-18{fill:#f4b21e;}.cls-19{fill:#83a73f;}.cls-20{fill:#833e21;}.cls-21{fill:#057b5d;}.cls-22{fill:#069355;}.cls-23{fill:#d7284d;}.cls-24{fill:#db9b0b;}.cls-25{fill:#db3e5e;}.cls-26{fill:#d03216;}.cls-27{fill:#92b946;}.cls-28{fill:#9ec15b;}.cls-29{fill:#c2890a;}.cls-30{fill:#f5bc3d;}.cls-31{fill:#f6b9a2;}.cls-32{fill:#f5afa3;}.cls-33{fill:#fbe9ed;}.cls-34{fill:#034a38;}.cls-35{fill:#034a2b;}.cls-36{fill:#04634b;}</style><clipPath id="clippath"><path class="cls-1" d="M622.58,1303.83s6.79-1.52,13.93,1.95c7.74,3.76,14.56,8.99,14.56,8.99l-8.12-68.29s96.93-139.49,89.87-278.1l-289.37-290.28-170.06,44.22-65.08,238.99,60.02,205.96,152.03,117.91,202.22,18.65Z"/></clipPath><clipPath id="clippath-1"><path class="cls-1" d="M461.3,1475.31c-12.91,16.9-256.42-432.52-53.91-481,171.38-41.03,276.12,470.55,234.24,466.27-41.88-4.29-58.24,27.6-57.5,44.9,0,0-11.5-47.18-54.94-54.16-28.15-4.52-53.25,4.84-67.89,23.99Z"/></clipPath><clipPath id="clippath-2"><path class="cls-1" d="M1348.39,1219.18c45.67,5.42,6.1,151.78-90.8,272.31-71.57,89.03-162.17,150.37-162.17,150.37,0,0,33.38-35.84,1.65-64.99-32.93-30.26-61.49-1.12-61.49-1.12,0,0,20.23-70.86-49.46-90.27,49.08-83.49,283.99-275.59,362.26-266.3Z"/></clipPath><clipPath id="clippath-3"><path class="cls-1" d="M408.53,1483.43l13.96-114.18,110.32,41.55,68.42-127.58,53.87-62.51,49.05-10.27,25.88,78-28.7,142.01-100.24,105.99-70.38,24.77-122.18-77.78Zm-65.71-43.15l13.69-111.94-47.71,2.65-27.71,54.83-.8,30.75,62.53,23.71Z"/></clipPath></defs><g id="Leaf18"><g><path class="cls-4" d="M713.19,1165.62c13.34-24.12,25.96-50.4,37.45-78.5,10.62-25.96,20.24-53.46,28.73-82.14,8.08-27.85,14.55-52.74,19.4-75.66,6-28.33,9.73-53.62,11.81-77.55,2.81-32.43,2.56-62.35,.75-94.05-2.3-40.45-7.33-83.81-12.02-139.3-.19-2.81-2.63-4.93-5.43-4.73-2.81,.2-4.92,2.63-4.73,5.44,4.49,80.56,10.01,135.56,7.9,193-.89,24.22-3.21,48.87-7.42,76.14-5.04,32.62-12.67,68.99-24.63,112.69-7.57,28.45-16.36,55.74-26.05,81.6-10.49,28.01-22.01,54.32-34.38,78.5-1.26,2.37-.36,5.33,2.02,6.6,2.38,1.26,5.34,.36,6.6-2.02Z"/><path class="cls-4" d="M715.61,689.06s4.54,8.75,15.4,17.91c5.3,4.47,12.11,8.84,19.98,11.89,16.53,6.37,32.26,7.78,48.82,8.49,2.73,1.25,5.96,.05,7.2-2.68,1.24-2.73,.05-5.95-2.68-7.2-7.47-8.16-12.33-16.47-19.38-26.42-2.65-3.73-4.43-7.08-7.28-10.47-1.8-2.14-3.66-4.02-5.6-5.84-3.5-3.26-6.72-6.45-10.1-8.75-10.09-6.91-17.92-9.44-17.92-9.44-8.97-7.85-22.63-6.94-30.48,2.04-7.85,8.98-6.94,22.64,2.04,30.48Z"/><path class="cls-4" d="M723.37,636.18s4.03,5.74,12.9,12.24c2.89,2.12,6.53,3.82,10.35,5.8,2.11,1.09,4.25,2.06,6.62,2.93,3.77,1.38,7.13,1.73,11.25,2.88,10.4,2.88,18.67,4.29,29.23,8.51,2.06,2.17,5.5,2.27,7.68,.21,2.18-2.06,2.27-5.5,.21-7.68-5.83-16.46-10.88-29.18-20.59-41.4-5.05-6.36-11.07-11.02-16.64-14.23-12.05-6.96-21.24-7.66-21.24-7.66-10.61-5.46-23.64-1.28-29.09,9.33-5.46,10.6-1.28,23.63,9.33,29.09Z"/><path class="cls-4" d="M751.93,553.7s-.25,6.89,2.93,17.13c1.04,3.34,2.92,6.76,4.79,10.51,1.03,2.07,2.16,4.06,3.53,6.09,2.21,3.27,4.67,5.42,7.29,8.67,6.71,8.3,12.47,14.01,18.37,23.31,.36,2.97,3.08,5.09,6.06,4.73,2.97-.37,5.09-3.07,4.73-6.06,5.09-16.12,8.61-28.98,8.13-44.47-.25-7.86-2.25-14.99-4.77-20.73-5.39-12.32-12.23-18.15-12.23-18.15-5.24-10.71-18.18-15.16-28.89-9.93-10.71,5.23-15.16,18.18-9.93,28.89Z"/><path class="cls-4" d="M832.88,590.24s-6.74,3.85-14.55,12.54c-2.58,2.86-4.8,6.53-7.22,10.37-1.34,2.14-2.61,4.3-3.69,6.73-1.73,3.85-2.55,7.31-3.93,11.49-3.63,10.98-5.73,19.66-9.56,29.72-2.04,2.06-2.04,5.4,.03,7.45,2.06,2.05,5.39,2.04,7.44-.02,14.33-5.81,27.62-10.26,40.64-19.56,6.23-4.45,11.25-9.72,14.91-14.78,7.58-10.45,9.59-19.04,9.59-19.04,6.87-9.29,4.9-22.41-4.39-29.28-9.29-6.87-22.41-4.89-29.28,4.4Z"/><path class="cls-4" d="M859.53,665.59s-7.25,1.61-16.95,7.21c-3.21,1.86-6.34,4.56-9.74,7.3-1.9,1.53-3.7,3.12-5.48,4.97-2.83,2.94-4.6,5.9-7.3,9.2-7.09,8.63-11.89,15.86-19.7,23.14-2.76,.96-4.23,3.97-3.28,6.73,.95,2.76,3.96,4.23,6.72,3.28,16.22,1.18,30.59,1.37,46.37-3.04,7.67-2.15,14.35-5.76,19.6-9.57,10.89-7.93,15.52-15.94,15.52-15.94,9.18-7.1,10.87-20.33,3.77-29.51-7.11-9.18-20.34-10.87-29.53-3.76Z"/><path class="cls-4" d="M866.77,748.5s-7.25,1.22-17.14,6.28c-3.27,1.68-6.5,4.2-10.01,6.75-1.95,1.41-3.81,2.9-5.67,4.64-2.97,2.76-4.85,5.62-7.71,8.74-7.5,8.19-12.63,15.1-20.88,21.86-2.83,.77-4.49,3.69-3.73,6.51,.77,2.83,3.69,4.5,6.51,3.73,16.22,2.3,30.53,3.27,46.52-.25,7.79-1.72,14.66-5,20.1-8.56,11.31-7.4,16.31-15.22,16.31-15.22,9.52-6.7,11.8-19.88,5.1-29.4-6.71-9.52-19.88-11.8-29.41-5.09Z"/><path class="cls-4" d="M869.33,816.74s-7.45-.01-18.17,3.36c-3.55,1.12-7.2,3.08-11.13,5.03-2.19,1.08-4.3,2.25-6.45,3.67-3.42,2.26-5.78,4.79-9.16,7.42-8.86,6.9-15.14,12.92-24.47,18.3-2.94,.31-5.09,2.94-4.78,5.88,.3,2.94,2.93,5.08,5.87,4.78,15.74,4.94,29.83,8.32,46.33,7.49,8.04-.41,15.43-2.49,21.44-5.11,12.48-5.44,18.79-12.35,18.79-12.35,10.62-5.05,15.15-17.75,10.1-28.37-5.04-10.61-17.75-15.14-28.37-10.1Z"/><path class="cls-4" d="M868.23,890.43s-7.44-1.13-18.64,.64c-3.71,.59-7.63,2.02-11.85,3.37-2.35,.76-4.62,1.62-6.98,2.71-3.75,1.75-6.49,3.93-10.25,6.06-9.86,5.59-17,10.7-27.09,14.72-2.98-.12-5.5,2.2-5.63,5.18-.12,2.98,2.2,5.5,5.18,5.63,14.96,7.19,28.5,12.64,45.08,14.25,8.07,.78,15.74-.21,22.11-1.93,13.24-3.57,20.55-9.51,20.55-9.51,11.35-3.45,17.77-15.45,14.32-26.81-3.44-11.35-15.45-17.77-26.8-14.32Z"/><path class="cls-4" d="M854.31,952.64s-7.46-.49-18.42,2.23c-3.62,.9-7.4,2.64-11.47,4.34-2.26,.94-4.45,1.98-6.69,3.27-3.57,2.05-6.1,4.43-9.65,6.86-9.3,6.36-15.97,12.01-25.65,16.84-2.96,.12-5.27,2.63-5.14,5.6,.12,2.96,2.63,5.26,5.59,5.15,15.46,5.9,29.35,10.17,45.93,10.37,8.07,.09,15.6-1.54,21.78-3.78,12.84-4.66,19.58-11.19,19.58-11.19,10.96-4.38,16.29-16.83,11.91-27.79-4.38-10.95-16.83-16.29-27.78-11.9Z"/><path class="cls-4" d="M828.38,1021.03s-7.46-.51-18.43,2.17c-3.63,.89-7.41,2.62-11.49,4.31-2.26,.93-4.45,1.97-6.7,3.25-3.58,2.04-6.12,4.42-9.66,6.84-9.33,6.34-16.01,11.97-25.71,16.77-2.96,.11-5.28,2.61-5.16,5.58,.11,2.96,2.62,5.28,5.58,5.16,15.44,5.95,29.32,10.26,45.91,10.51,8.07,.12,15.61-1.48,21.8-3.71,12.86-4.62,19.62-11.13,19.62-11.13,10.97-4.34,16.34-16.78,12-27.75-4.35-10.97-16.78-16.35-27.76-11.99Z"/><path class="cls-4" d="M715.71,767.49s4.91,8.13,16.26,16c5.46,3.78,12.4,7.32,20.31,9.3,16.35,4.1,31.04,3.49,47.66,1.76,2.88,.91,5.96-.7,6.87-3.58,.9-2.89-.7-5.96-3.58-6.87-8.16-7.29-13.19-14.57-20.65-23.29-2.84-3.31-4.68-6.31-7.65-9.26-1.87-1.84-3.74-3.44-5.71-4.95-3.54-2.72-6.79-5.41-10.12-7.23-10.06-5.49-17.52-6.93-17.52-6.93-9.67-7.14-23.31-5.08-30.46,4.59-7.14,9.67-5.08,23.32,4.58,30.45Z"/><path class="cls-4" d="M712.01,843.44s4.91,8.13,16.26,16c5.46,3.78,12.4,7.32,20.31,9.3,16.35,4.1,31.04,3.49,47.66,1.76,2.88,.91,5.96-.7,6.87-3.58,.9-2.89-.7-5.96-3.58-6.87-8.16-7.29-13.19-14.57-20.65-23.29-2.84-3.31-4.68-6.31-7.65-9.26-1.87-1.84-3.74-3.44-5.71-4.95-3.54-2.72-6.79-5.41-10.12-7.23-10.06-5.49-17.52-6.93-17.52-6.93-9.67-7.14-23.31-5.08-30.46,4.59-7.14,9.67-5.08,23.32,4.58,30.45Z"/><path class="cls-4" d="M701.81,909.29s4.91,8.13,16.26,16c5.46,3.78,12.4,7.32,20.31,9.3,16.35,4.1,31.04,3.49,47.66,1.76,2.88,.91,5.96-.7,6.87-3.58,.9-2.89-.7-5.96-3.58-6.87-8.16-7.29-13.19-14.57-20.65-23.29-2.84-3.31-4.68-6.31-7.65-9.26-1.87-1.84-3.74-3.44-5.71-4.95-3.54-2.72-6.79-5.41-10.12-7.23-10.06-5.49-17.52-6.93-17.52-6.93-9.67-7.14-23.31-5.08-30.46,4.59-7.14,9.67-5.08,23.32,4.59,30.45Z"/><path class="cls-4" d="M693.03,960.78s3.22,8.85,12.75,18.71c4.59,4.75,10.67,9.53,18,13.01,15.07,7.14,29.49,9.4,46.03,10.91,2.62,1.43,5.91,.45,7.33-2.17,1.42-2.62,.45-5.92-2.17-7.33-6.59-8.64-10.1-16.69-15.7-26.56-2.13-3.76-3.36-7.03-5.68-10.46-1.46-2.16-2.97-4.06-4.6-5.91-2.93-3.33-5.57-6.57-8.45-8.98-8.72-7.28-15.68-10.13-15.68-10.13-7.98-8.79-21.59-9.44-30.37-1.46-8.79,7.98-9.44,21.59-1.46,30.38Z"/><path class="cls-4" d="M673.83,1037.92s4.39,6.18,13.57,12.92c3.03,2.23,6.84,3.99,10.79,6.02,2.2,1.12,4.42,2.11,6.89,2.99,3.95,1.4,7.41,1.73,11.62,2.85,11.17,2.95,19.82,4.22,29.87,8.43,2.09,2.28,5.63,2.45,7.91,.37,2.29-2.09,2.45-5.63,.37-7.92-5.26-15.82-10.78-29.39-21.48-42.64-5.11-6.32-11.23-11.1-16.98-14.42-11.92-6.88-21.37-7.78-21.37-7.78-10.81-5.85-24.34-1.81-30.18,9-5.85,10.81-1.82,24.33,9,30.18Z"/></g></g><g id="Leaf17"><g><path class="cls-35" d="M476.52,1593.14c-64.96-119.48,386.64-550.79,590.81-671.22,204.17-120.43,381.43-178.46,481.97-18.14,82.48,131.53-139.19,344.92-292.06,434.68-152.86,89.76-712.47,380.2-780.72,254.68Z"/><g><path class="cls-22" d="M1487.51,918.15c-312.09,167.71-680.48,416.44-952.26,619.99-2.87,2.15-3.46,6.23-1.31,9.11,2.15,2.87,6.23,3.46,9.11,1.31,271.31-203.2,639.06-451.52,950.61-618.94,3.17-1.7,4.35-5.65,2.65-8.81-1.7-3.16-5.65-4.35-8.81-2.65Z"/><path class="cls-22" d="M638.53,1476.44l148.05,41.96c3.53,.67,6.94-1.66,7.6-5.18,.67-3.53-1.66-6.93-5.19-7.6l-148.05-41.96c-3.53-.67-6.93,1.66-7.6,5.19-.67,3.53,1.66,6.94,5.19,7.6Z"/><path class="cls-22" d="M600.4,1385.1l-9.7,114.41c-.44,3.57,2.1,6.82,5.66,7.25,3.56,.44,6.81-2.1,7.25-5.66l9.7-114.42c.44-3.57-2.1-6.81-5.66-7.25-3.57-.44-6.82,2.1-7.25,5.67Z"/><path class="cls-22" d="M1396.42,852.09l-49.7,146.09c-1.16,3.4,.65,7.1,4.05,8.26,3.4,1.16,7.1-.65,8.26-4.05l49.7-146.08c1.16-3.4-.66-7.1-4.05-8.27-3.4-1.16-7.1,.66-8.26,4.05Z"/><path class="cls-22" d="M1262.5,860.94l-35.28,207.8c-.63,3.54,1.71,6.92,5.25,7.56,3.53,.64,6.92-1.72,7.56-5.25l35.28-207.8c.64-3.53-1.72-6.92-5.25-7.56-3.54-.63-6.92,1.72-7.56,5.25Z"/><path class="cls-22" d="M1317.58,1029.07l144.45,34.32c3.53,.67,6.94-1.64,7.62-5.17,.67-3.52-1.64-6.94-5.17-7.62l-144.45-34.31c-3.53-.68-6.94,1.64-7.62,5.17-.67,3.52,1.64,6.94,5.17,7.61Z"/><path class="cls-22" d="M1183.44,1110.13l202.76,69.45c3.4,1.15,7.1-.68,8.25-4.08,1.15-3.4-.68-7.1-4.08-8.24l-202.77-69.45c-3.4-1.15-7.1,.68-8.25,4.08-1.15,3.4,.68,7.1,4.09,8.25Z"/><path class="cls-22" d="M1115.6,947.19l-10.1,197.75c-.14,3.59,2.67,6.61,6.26,6.75,3.59,.14,6.61-2.67,6.75-6.26l10.1-197.75c.14-3.59-2.67-6.61-6.26-6.75-3.59-.13-6.61,2.67-6.74,6.26Z"/><path class="cls-22" d="M1208.14,1273.78l-182.09-72.84c-3.39-1.2-7.11,.58-8.3,3.97-1.2,3.39,.58,7.11,3.97,8.3l182.09,72.84c3.39,1.2,7.1-.58,8.3-3.97,1.2-3.39-.58-7.11-3.97-8.3Z"/><path class="cls-22" d="M951.13,1062.71l-8.96,189.34c-.03,3.59,2.87,6.53,6.46,6.55,3.59,.03,6.53-2.87,6.55-6.46l8.96-189.34c.03-3.59-2.87-6.53-6.46-6.55-3.59-.03-6.53,2.87-6.55,6.46Z"/><path class="cls-22" d="M1075.92,1356.11l-181.36-70.87c-3.35-1.28-7.11,.4-8.4,3.76-1.28,3.35,.4,7.12,3.76,8.4l181.36,70.87c3.36,1.28,7.12-.4,8.4-3.76,1.28-3.36-.4-7.12-3.76-8.4Z"/><path class="cls-22" d="M830.17,1171.48l-1.63,158.4c-.1,3.59,2.74,6.58,6.33,6.68,3.59,.09,6.58-2.74,6.68-6.33l1.63-158.4c.09-3.59-2.74-6.58-6.33-6.68-3.59-.09-6.58,2.74-6.68,6.33Z"/><path class="cls-22" d="M920.4,1435.33l-168.81-49.22c-3.5-.82-7,1.36-7.81,4.86-.82,3.5,1.36,7,4.86,7.81l168.81,49.22c3.5,.82,7-1.36,7.81-4.86,.82-3.5-1.36-7-4.86-7.81Z"/><path class="cls-22" d="M702.98,1283.3l-11.76,142.9c-.35,3.58,2.27,6.76,5.84,7.11,3.58,.35,6.76-2.27,7.11-5.84l11.76-142.9c.35-3.58-2.27-6.76-5.85-7.11-3.57-.35-6.76,2.27-7.11,5.84Z"/></g></g></g><g id="Leaf16"><g><path class="cls-36" d="M837.91,910.66c-20.85-75.38-76.17-113.78-138.83-148.12-62.67-34.34-93.14-49.54-91.79-107.42,1.35-57.88-51.58-141.93-105.92-147.15-54.35-5.22,33.46,70.75,5.68,131.46-27.79,60.71-52.65,177.17-20.97,252.96,31.68,75.8,115.64,135.63,85.9,252.42-29.74,116.79-54.68,250.58,106.77,348.89,161.44,98.31,354.06,18.29,318.42-159.3-24.46-121.88-93.76-175.82-117.24-230.73-26.38-61.67-25.69-134.01-42-193.01Z"/><path class="cls-28" d="M530.74,557.81c8.68,15.36,21,38.77,25.79,68.75,3.35,21.03,2.96,45.32-5.05,72.34-8.69,29.36-.05,62.59,16.59,95.12,22.3,43.6,58.91,86,84.49,115.8,22.87,26.55,40.82,60.12,50.58,99.46,8.3,33.46,10.62,71.1,4.88,112.17-6.57,47.37,3.29,118.24,23.48,186.19,20.1,67.65,50.52,132.29,84.27,168.47,4.33,4.6,11.58,4.81,16.17,.48,4.6-4.33,4.81-11.58,.48-16.17-32.31-33.89-61.21-95.02-80.96-158.83-20.05-64.75-30.69-132.33-24.96-177.69,5.48-43.63,2.46-83.5-6.87-118.84-11.04-41.8-30.85-77.28-55.71-105.19-25.6-28.64-62.28-69.36-85-111.54-15.87-29.47-25.04-59.6-17.68-86.66,7.8-28.74,7.62-54.4,3.55-76.53-5.69-30.96-18.95-54.95-28.33-70.65-.91-1.58-2.94-2.11-4.51-1.2-1.58,.91-2.11,2.94-1.2,4.51Z"/></g></g><g id="Leaf15"><g><path class="cls-11" d="M525.81,1371.45c-21.23-12.46-42.9-26.91-64.52-43.27-19.98-15.11-39.89-31.86-59.47-50.04-18.89-17.72-35.19-33.9-49.35-49.3-17.51-19.04-31.89-36.77-44.38-54.21-16.93-23.63-30.35-46.74-43.4-71.92-16.65-32.13-32.53-67.73-54.19-112.51-1.13-2.25-.23-4.99,2.02-6.11,2.25-1.13,4.98-.22,6.11,2.02,33.23,63.94,54.03,108.71,81.8,151.88,11.71,18.2,24.72,36.09,40.36,55.12,18.72,22.77,41.14,47.24,70.23,75.37,18.77,18.41,37.95,35.38,57.17,50.83,20.81,16.74,41.64,31.72,62.16,44.66,2.05,1.25,2.7,3.93,1.45,5.99-1.25,2.05-3.94,2.71-5.99,1.46Z"/><path class="cls-11" d="M306.95,1006.38s.49,8.79-3.68,20.78c-2.04,5.85-5.28,12.31-9.94,18.23-9.8,12.42-21.24,20.66-33.65,28.75-1.53,2.2-4.56,2.75-6.76,1.22-2.2-1.53-2.75-4.55-1.22-6.76,2.03-9.67,1.98-18.27,2.86-29.12,.34-4.07,.18-7.46,.83-11.36,.41-2.47,.98-4.75,1.65-7.04,1.2-4.1,2.23-8.02,3.77-11.32,4.61-9.9,9.47-15.41,9.47-15.41,3.32-10.12,14.23-15.64,24.35-12.31,10.12,3.32,15.64,14.23,12.31,24.35Z"/><path class="cls-11" d="M276.92,969.29s-.49,6.24-4.34,15.28c-1.26,2.94-3.28,5.91-5.31,9.17-1.12,1.8-2.33,3.51-3.75,5.26-2.27,2.78-4.69,4.58-7.33,7.34-6.68,6.95-12.39,11.79-18.58,19.84-.6,2.61-3.19,4.25-5.81,3.66-2.61-.59-4.25-3.19-3.66-5.81-3.02-15.3-4.93-27.38-3.03-41.19,.99-7.19,3.49-13.51,6.3-18.51,6.09-10.83,12.83-15.56,12.83-15.56,5.67-9.02,17.58-11.75,26.6-6.08,9.02,5.66,11.74,17.57,6.08,26.6Z"/><path class="cls-11" d="M217.41,918.9s3.33,5.18,5.55,14.5c.72,3.04,.83,6.53,1.1,10.25,.15,2.06,.19,4.1,.06,6.29-.21,3.52-1.12,6.29-1.65,9.98-1.37,9.43-3.2,16.44-3.5,26.27,1.08,2.45-.05,5.31-2.5,6.39-2.45,1.07-5.31-.04-6.39-2.5-11.26-10.07-19.81-18.34-26.49-30.47-3.39-6.16-5.09-12.54-5.78-18.1-1.47-11.92,1.13-19.52,1.13-19.52-.85-10.61,7.06-19.93,17.68-20.78,10.61-.86,19.93,7.06,20.79,17.68Z"/><path class="cls-11" d="M171.85,983.84s6.93-.11,16.89,3.01c3.28,1.02,6.66,2.83,10.27,4.68,2,1.04,3.96,2.12,5.9,3.49,3.09,2.17,5.29,4.46,8.25,7.04,7.79,6.79,13.35,12.49,20.87,18.48,2.51,.65,4.03,3.22,3.37,5.73-.65,2.51-3.22,4.02-5.73,3.37-13.66,2.06-25.89,4.69-40.13,3.47-6.81-.58-13.07-2.35-18.19-4.56-10.58-4.59-16.04-10.27-16.04-10.27-9.51-4.01-13.97-14.99-9.95-24.49,4.01-9.51,14.99-13.97,24.5-9.95Z"/><path class="cls-11" d="M185.69,1053.88s6.31-2.07,16.31-2.18c3.31-.04,6.95,.62,10.81,1.17,2.15,.31,4.26,.72,6.47,1.32,3.52,.97,6.22,2.44,9.8,3.74,9.38,3.4,16.36,6.77,25.67,8.81,2.56-.52,5.06,1.13,5.58,3.68s-1.12,5.05-3.67,5.58c-11.93,8.29-22.88,14.98-37.01,18.78-6.87,1.84-13.65,2.11-19.42,1.57-11.97-1.13-19.18-5.18-19.18-5.18-10.29-1.28-17.61-10.67-16.33-20.96,1.28-10.29,10.68-17.62,20.97-16.34Z"/><path class="cls-11" d="M217.89,1120.87s6.13-2.36,16.03-2.97c3.28-.2,6.9,.27,10.76,.63,2.14,.19,4.25,.49,6.47,.98,3.54,.77,6.29,2.11,9.9,3.2,9.49,2.87,16.58,5.85,25.99,7.29,2.52-.7,5.13,.79,5.83,3.31,.69,2.53-.78,5.14-3.3,5.83-11.42,9.15-21.97,16.42-35.86,20.99-6.77,2.23-13.54,2.83-19.34,2.58-12.06-.54-19.46-4.27-19.46-4.27-10.37-.81-18.12-9.9-17.3-20.27,.82-10.37,9.9-18.12,20.28-17.3Z"/><path class="cls-11" d="M246.98,1174.47s5.72-3.4,15.49-5.69c3.24-.76,6.93-.91,10.84-1.21,2.17-.17,4.33-.23,6.62-.12,3.66,.18,6.63,1.05,10.42,1.53,9.94,1.27,17.51,3.03,27.13,2.92,2.4-1.1,5.25-.06,6.35,2.34,1.11,2.39,.06,5.24-2.34,6.35-9.85,10.96-19.13,19.97-32.18,26.85-6.36,3.35-12.99,5.11-18.8,5.83-12.07,1.51-20.06-.93-20.06-.93-10.46,.96-19.72-6.75-20.68-17.2-.96-10.45,6.74-19.71,17.2-20.68Z"/><path class="cls-11" d="M281.37,1230.58s5.2-4.26,14.62-7.99c3.12-1.24,6.78-1.93,10.64-2.81,2.15-.49,4.29-.86,6.6-1.09,3.68-.37,6.77,.06,10.63-.01,10.12-.19,17.93,.48,27.51-1.02,2.24-1.45,5.23-.81,6.68,1.42,1.45,2.24,.81,5.23-1.42,6.69-8.22,12.34-16.14,22.69-28.15,31.48-5.85,4.27-12.19,7.01-17.86,8.59-11.8,3.29-20.12,2.05-20.12,2.05-10.29,2.52-20.69-3.78-23.21-14.08-2.53-10.29,3.78-20.69,14.07-23.2Z"/><path class="cls-11" d="M320.42,1272.06s5.51-3.77,15.17-6.68c3.19-.96,6.89-1.34,10.79-1.89,2.16-.31,4.32-.5,6.63-.53,3.68-.05,6.7,.63,10.54,.88,10.05,.65,17.74,1.96,27.37,1.26,2.33-1.25,5.24-.38,6.5,1.96,1.25,2.33,.38,5.24-1.96,6.5-9.19,11.57-17.92,21.18-30.57,28.88-6.16,3.74-12.69,5.92-18.46,7.01-11.99,2.27-20.14,.32-20.14,.32-10.42,1.62-20.18-5.51-21.8-15.92-1.62-10.41,5.52-20.18,15.93-21.8Z"/><path class="cls-11" d="M371.47,1312.8s5.5-3.79,15.15-6.72c3.19-.97,6.89-1.37,10.79-1.92,2.16-.31,4.31-.51,6.63-.55,3.68-.06,6.71,.61,10.54,.85,10.05,.62,17.75,1.91,27.39,1.18,2.32-1.26,5.24-.4,6.51,1.94,1.26,2.33,.39,5.25-1.94,6.51-9.16,11.6-17.86,21.23-30.49,28.97-6.15,3.77-12.67,5.97-18.44,7.08-11.98,2.3-20.15,.38-20.15,.38-10.4,1.65-20.2-5.45-21.85-15.86-1.65-10.41,5.45-20.2,15.87-21.85Z"/><path class="cls-11" d="M342.6,1066.69s-.07,8.48-5.21,19.69c-2.47,5.39-6.2,11.27-11.37,16.4-10.69,10.6-22.26,16.81-35.82,23.05-1.8,2.01-4.89,2.18-6.91,.38-2.01-1.81-2.18-4.9-.37-6.91,2.95-9.32,3.5-17.2,5.26-27.29,.68-3.84,.73-6.98,1.66-10.6,.59-2.27,1.31-4.34,2.13-6.4,1.48-3.71,2.76-7.25,4.48-10.16,5.23-8.8,10.31-13.3,10.31-13.3,4.18-9.88,15.6-14.52,25.49-10.34,9.89,4.18,14.52,15.6,10.34,25.49Z"/><path class="cls-11" d="M380.01,1123.36s-.07,8.48-5.21,19.69c-2.47,5.39-6.2,11.27-11.37,16.4-10.69,10.6-22.26,16.81-35.82,23.05-1.8,2.01-4.89,2.18-6.91,.38-2.01-1.81-2.18-4.9-.37-6.91,2.95-9.32,3.5-17.2,5.26-27.29,.68-3.84,.73-6.98,1.66-10.6,.59-2.27,1.31-4.34,2.13-6.4,1.48-3.71,2.76-7.25,4.48-10.16,5.23-8.8,10.31-13.3,10.31-13.3,4.18-9.88,15.6-14.52,25.49-10.34,9.89,4.18,14.52,15.6,10.34,25.49Z"/><path class="cls-11" d="M417.84,1169.31s-.07,8.48-5.21,19.69c-2.47,5.39-6.2,11.27-11.37,16.4-10.69,10.6-22.26,16.81-35.82,23.05-1.8,2.01-4.89,2.18-6.91,.38-2.01-1.81-2.18-4.9-.37-6.91,2.95-9.32,3.5-17.2,5.26-27.29,.68-3.84,.73-6.98,1.66-10.6,.59-2.27,1.31-4.34,2.13-6.4,1.48-3.71,2.76-7.25,4.48-10.16,5.23-8.8,10.31-13.3,10.31-13.3,4.18-9.88,15.6-14.52,25.49-10.34,9.89,4.18,14.52,15.6,10.34,25.49Z"/><path class="cls-11" d="M448.03,1204.88s1.56,8.27-1.28,20.18c-1.37,5.74-3.86,12.18-7.91,18.19-8.33,12.34-18.38,20.65-30.4,29.34-1.36,2.29-4.34,3.04-6.62,1.67-2.29-1.37-3.04-4.34-1.67-6.62,1.13-9.64,.17-17.42-.03-27.55-.07-3.86-.62-6.93-.39-10.62,.14-2.32,.44-4.47,.84-6.64,.73-3.89,1.29-7.59,2.4-10.75,3.38-9.57,7.43-14.92,7.43-14.92,2.13-10.39,12.29-17.09,22.67-14.95,10.39,2.13,17.08,12.29,14.95,22.67Z"/><path class="cls-11" d="M497.89,1255.4s-.55,6.75-4.54,16.11c-1.32,3.09-3.44,6.18-5.55,9.54-1.18,1.86-2.44,3.64-3.93,5.43-2.4,2.88-4.91,4.71-7.63,7.48-7.24,7.36-13.31,12.26-19.11,20.08-.56,2.7-3.21,4.45-5.91,3.89-2.71-.56-4.44-3.21-3.89-5.92-3.16-14.55-5.1-27.49-2.91-42.55,1.05-7.18,3.58-13.65,6.48-18.82,6.03-10.71,12.88-15.7,12.88-15.7,5.64-9.42,17.87-12.47,27.29-6.82,9.42,5.65,12.47,17.87,6.83,27.29Z"/></g></g><g id="Leaf14"><g><path class="cls-22" d="M830.05,1444.34c10.8,53.71,172.22,66.48,307.13-17.11,69.44-43.03,146.31-120.71,207.26-198.62,9.71-12.41-74.62-14.58-65.81-26.86,8.53-11.9,110.23-33.94,117.74-45.46,42.99-65.97,67.82-123.67,58.37-149.36-23.48-63.88-337.99,161.6-452.89,240.91-12.77,8.81-40.73,92.61-53.78,102.52-12.66,9.61,6.66-77.68-5.42-67.44-56.9,48.21-120.07,124.21-112.6,161.42Z"/><path class="cls-20" d="M1159.98,1344.55s-13,1.87-29.37,5.4c-13.96,3.01-30.11,7.56-43.63,10.08-7.11,1.33-13.29,2.38-17.91,2.53-2.54-.16-4.73,1.77-4.89,4.31-.16,2.54,1.77,4.73,4.31,4.89,10.56,1.64,29.81,1.21,48.54-.29,6.58-.52,13.05-1.1,18.98-2,15.99-2.43,28-5.67,28-5.67,5.31-1.12,8.72-6.33,7.61-11.64-1.11-5.31-6.33-8.72-11.64-7.61Zm83.93-81.14s-6.63-.32-15.65,.02c-3.24,.12-6.77,.36-10.41,.77-18.33,2.06-38.97,5.9-38.97,5.9-2.55,.06-4.56,2.17-4.51,4.71,.06,2.54,2.17,4.56,4.71,4.51,0,0,20.8,2.9,39.2,4.13,3.66,.24,7.2,.32,10.44,.3,9.02-.07,15.63-.69,15.63-.69,5.42-.12,9.73-4.63,9.61-10.05-.12-5.43-4.63-9.73-10.05-9.61Zm172.77-226.66s-123.43,115.58-246.3,216.73c-65.63,54.04-131.14,103.87-177.85,130.23-73.16,41.28-138.29,74.35-197.87,99.54-50.83,21.49-97.66,37.17-141.98,47.36-11.04,2.33-21.9-4.73-24.23-15.77-2.33-11.04,4.73-21.89,15.77-24.23,42.65-8.23,87.88-21.69,137.12-40.49,59.42-22.68,124.56-52.95,197.88-90.98,46.65-24.19,112.43-70.84,178.58-121.49,126.01-96.48,253.08-207.31,253.08-207.31,1.77-1.6,4.5-1.46,6.1,.31,1.6,1.77,1.46,4.5-.31,6.1Zm-295.21,150.54s-4.22,5.7-9.33,14.15c-1.8,2.98-3.69,6.32-5.48,9.89-7,13.89-13.71,30.23-16.84,39.56-1.09,2.3-.11,5.05,2.19,6.14,2.3,1.09,5.05,.11,6.14-2.19,4.25-6.71,12.44-16.98,20.27-27.31,3.08-4.06,6.15-7.97,8.72-11.79,6.61-9.84,10.89-17.82,10.89-17.82,2.93-4.57,1.61-10.66-2.96-13.59-4.57-2.93-10.65-1.6-13.59,2.97Z"/></g></g><g id="Leaf13"><g><path class="cls-7" d="M661.78,1561.64c110.09-29.94,16.96-461.31-60.39-644.94-77.36-183.64-166.39-304.31-285.44-251.6-119.05,52.71-51.24,272.73,6.88,409.94,58.12,137.22,250.02,510.79,338.96,486.6Z"/><g><path class="cls-35" d="M339.67,710.84c126.2,269.16,223.72,540.76,304.89,813.76,1.01,3.38,4.56,5.31,7.94,4.3,3.38-1.01,5.31-4.57,4.3-7.94-81.35-273.6-179.1-545.8-305.57-815.54-1.5-3.19-5.3-4.57-8.5-3.07-3.19,1.5-4.57,5.3-3.07,8.49Z"/><path class="cls-35" d="M429.31,716.21l-35.33,110.58c-1.07,3.36,.78,6.96,4.14,8.03,3.36,1.07,6.95-.78,8.03-4.14l35.33-110.59c1.07-3.36-.78-6.96-4.14-8.03-3.36-1.07-6.95,.78-8.03,4.14Z"/><path class="cls-35" d="M505.29,800.97l-65.41,131.7c-1.57,3.16-.28,6.99,2.88,8.56,3.16,1.57,7,.28,8.56-2.88l65.41-131.69c1.57-3.16,.28-7-2.88-8.57-3.16-1.57-6.99-.28-8.56,2.88Z"/><path class="cls-35" d="M416.79,855.2l-100.73-48.9c-3.17-1.54-7-.21-8.54,2.96-1.54,3.17-.21,7,2.96,8.54l100.73,48.9c3.17,1.54,7,.22,8.54-2.96,1.54-3.17,.21-7-2.96-8.54Z"/><path class="cls-35" d="M464.74,975.52l-135.38-44.18c-3.35-1.09-6.96,.74-8.05,4.09-1.09,3.35,.74,6.96,4.09,8.05l135.37,44.18c3.35,1.1,6.96-.74,8.06-4.09,1.09-3.35-.74-6.96-4.09-8.05Z"/><path class="cls-35" d="M558.84,935.64l-74.21,108.03c-2,2.91-1.25,6.89,1.65,8.88,2.91,2,6.89,1.26,8.88-1.65l74.21-108.03c2-2.91,1.26-6.88-1.65-8.88-2.91-2-6.89-1.26-8.88,1.65Z"/><path class="cls-35" d="M389.06,1098.2l130.99,40.81c3.37,1.04,6.95-.84,8-4.2,1.05-3.37-.83-6.95-4.2-8l-130.98-40.81c-3.37-1.05-6.95,.83-8,4.2-1.05,3.36,.84,6.95,4.2,8Z"/><path class="cls-35" d="M617.52,1093.55l-76.18,103.97c-2.08,2.84-1.47,6.84,1.38,8.93,2.84,2.08,6.84,1.47,8.93-1.38l76.18-103.97c2.08-2.84,1.46-6.85-1.38-8.93-2.84-2.08-6.84-1.47-8.93,1.38Z"/><path class="cls-35" d="M425.1,1223.02l138.07,39.18c3.39,.96,6.93-1.01,7.89-4.4,.96-3.39-1.01-6.93-4.4-7.89l-138.07-39.18c-3.39-.96-6.93,1.01-7.89,4.4-.96,3.39,1.01,6.93,4.4,7.89Z"/><path class="cls-35" d="M640.23,1219.83l-61.38,87.36c-2.03,2.88-1.33,6.87,1.55,8.9,2.89,2.03,6.87,1.33,8.9-1.55l61.38-87.36c2.03-2.88,1.33-6.87-1.55-8.9-2.88-2.03-6.87-1.33-8.9,1.55Z"/><path class="cls-35" d="M487.04,1348.7l120.51,52.67c3.23,1.41,7-.07,8.41-3.29,1.41-3.23-.07-7-3.29-8.41l-120.51-52.68c-3.23-1.41-7,.07-8.41,3.3-1.41,3.23,.06,7,3.29,8.41Z"/><path class="cls-35" d="M658.17,1365.55l-35.73,76.76c-1.49,3.2-.1,7,3.09,8.48s7,.1,8.49-3.09l35.73-76.76c1.49-3.2,.1-7-3.09-8.48-3.2-1.49-7-.1-8.49,3.09Z"/></g></g></g><g id="Leaf12"><g><path class="cls-36" d="M1042.76,1607.41s115.89,68.59,239.06,8.47c123.16-60.13,138.53-208.68,138.53-208.68,0,0-114.31-11.81-178.48,4.96-102.84,26.87-199.11,195.26-199.11,195.26Z"/><path class="cls-7" d="M1086.25,1596.5s15.78-1.87,40.91-7.92c11.65-2.81,25.11-6.58,39.86-11.5,9.94-3.31,20.38-7.18,31.06-11.71,14.65-6.22,29.7-13.72,44.86-21.8,19.36-10.32,38.72-21.89,57.12-34.46,29.13-19.9,55.63-42.21,75.52-66.3,2.63-2.88,2.42-7.37-.48-10-2.89-2.63-7.37-2.42-10,.48-21,20.97-48.33,39.29-77.5,55.79-27.76,15.71-57.42,28.98-85.06,41.12-12.98,5.7-25.52,11.11-37.17,16.4-15.41,6.99-29.25,13.55-41.14,19.2-25.44,12.06-41.18,19.82-41.18,19.82-2.99,.88-4.72,4.03-3.84,7.03,.88,3,4.03,4.72,7.03,3.84Z"/></g></g><g id="Leaf11"><g><path class="cls-22" d="M557.93,1574.58c1.97,38.98-51.06,104.15-137.28,101.09-139.59-4.96-312.94,53.64-320.54,39.04-7.8-14.98,83.35-108.48,217.19-163.02,94.94-38.7,237.76-33.85,240.63,22.89Z"/><path class="cls-36" d="M536.38,1569.81s-17.48,10.4-46.07,22.35c-13.71,5.73-29.96,11.78-48.1,17.27-15.27,4.62-31.87,8.81-49.45,11.98-16.08,2.89-32.95,5.07-50.39,5.62-43.25,1.62-81.57,9.73-113.48,20.03-64.88,20.94-103.24,50.54-103.24,50.54-1.32,.98-1.59,2.84-.61,4.15,.98,1.31,2.84,1.59,4.15,.61,0,0,38.48-27.54,102.47-46.28,31.36-9.18,68.85-16.3,111.01-16.88,18.11-.36,35.7-2.14,52.37-5.22,18.12-3.34,35.19-8.04,50.76-13.38,18.35-6.29,34.63-13.46,48.24-20.26,28.27-14.13,44.97-26.59,44.97-26.59,1.09-.73,1.38-2.2,.65-3.29-.73-1.09-2.21-1.38-3.3-.65Z"/></g></g><g id="Leaf10"><g><path class="cls-27" d="M564.77,1544.11s-51.65-61.94-133.78-12.37c-82.13,49.57-142.22,69.81-158.41,25.14-16.19-44.66,99.73-83.43,104.35-98.66,4.62-15.23-61.79-.47-103.12,17.89-44.72,19.88-87.53,24.33-97.49-4.36-10.66-30.69,19.63-50.29,52.42-63.3,28.96-11.49,60.72-18.98,49.42-27.52-11.29-8.53-87.65,11.96-120.74,1.87-55.1-16.81-46.61-62.25-20.57-74.61,42.51-20.18,109.77,3.38,81.55-17.84-26.5-19.93-96.27-53.7-74.4-89.53,20.06-32.87,55.17-27.95,85.2-.81,28.25,25.52,50.04,67.56,58.66,47.22,9.44-22.25-23.08-57.06,1.21-78.1,20.8-18.02,58.07-1.23,64.93,27.34,6.85,28.57,6.54,107.4,21.97,89.38,18.33-21.4,8.38-105.56,43.17-102.06,52.65,5.3,40.83,75.98,32.11,124.29-8.72,48.31,8.15,44.84,22.91,19.54,14.76-25.31,28-111.87,73.75-95.64,45.75,16.23,21.86,85.08,10.07,117.47s-27.5,68.33,1.46,108.07c28.96,39.74,43.63,58.07,43.63,58.07l-38.31,28.51Z"/><g><path class="cls-22" d="M571.84,1505.81s-62.64-47.06-121.54-91c-31.61-23.58-62.15-46.27-81.35-60.31-33.97-24.83-88.39-63.29-128.89-94.83-24.46-19.05-43.83-35.41-50.06-44.58-1.4-2.11-4.25-2.67-6.36-1.27-2.11,1.4-2.68,4.26-1.27,6.36,6.34,9.68,26.08,27.29,51.26,47.6,40.04,32.3,93.89,71.77,127.5,97.23,18.93,14.34,49.04,37.52,80.2,61.61,58.12,44.93,119.92,93.04,119.92,93.04,3.83,2.92,9.31,2.2,12.23-1.63,2.92-3.83,2.19-9.31-1.63-12.23Z"/><path class="cls-22" d="M183.57,1340.91s42.03,.08,80.68-3.34c21.5-1.91,41.94-4.97,53.83-9.61,2.23-.91,3.29-3.46,2.38-5.69-.91-2.23-3.46-3.29-5.69-2.38-11.23,4.83-30.73,8.31-51.25,10.85-38.26,4.73-80.01,6.08-80.01,6.08-1.13,.02-2.03,.95-2.02,2.08,.02,1.13,.95,2.03,2.08,2.02Z"/><path class="cls-22" d="M314.87,1206.14s14.75,41.1,22.07,82.02c3.61,20.16,5.43,40.27,2.59,55.19-.41,2.37,1.18,4.63,3.55,5.04,2.37,.42,4.63-1.18,5.05-3.55,2.48-15.8,.05-36.91-4.44-58-8.74-41.11-24.98-82.15-24.98-82.15-.4-1.05-1.58-1.59-2.64-1.19-1.05,.4-1.59,1.58-1.19,2.64Z"/><path class="cls-22" d="M231.31,1450.37s53.7-11.69,100.74-31.66c24.83-10.54,47.75-23.48,60.42-38.07,1.55-1.84,1.33-4.59-.51-6.15-1.84-1.55-4.59-1.33-6.15,.51-11.66,14.16-33.23,26.79-56.53,37.41-46.04,20.99-98.89,33.96-98.89,33.96-1.1,.25-1.78,1.35-1.53,2.45,.26,1.1,1.35,1.78,2.45,1.53Z"/><path class="cls-22" d="M422.83,1219.24s2.42,53.24-2.74,103.99c-2.56,25.13-6.95,49.64-14.54,66.56-.96,2.21,.06,4.78,2.27,5.74,2.21,.95,4.78-.06,5.74-2.27,7.4-17.75,11.42-43.28,13.38-69.41,3.84-51.26-.02-104.84-.02-104.84-.07-1.13-1.04-1.99-2.17-1.92-1.13,.07-1.99,1.03-1.92,2.16Z"/><path class="cls-22" d="M330.69,1526.73s54.33-12.31,101.63-31.74c25.8-10.6,49.45-23.43,61.6-37.38,1.56-1.84,1.33-4.59-.5-6.15-1.84-1.55-4.59-1.33-6.15,.51-11.18,13.52-33.45,26.01-57.65,36.7-46.37,20.48-99.89,34.08-99.89,34.08-1.1,.27-1.78,1.37-1.51,2.47,.26,1.1,1.37,1.78,2.46,1.51Z"/><path class="cls-22" d="M521.6,1283.42s-.28,53.82-6.99,109.85c-3,24.99-7.27,50.43-13.39,71.66-.64,2.32,.73,4.72,3.05,5.36,2.32,.64,4.72-.73,5.36-3.05,5.69-21.76,9.41-47.74,11.81-73.24,5.33-56.5,4.25-110.61,4.25-110.61,0-1.13-.93-2.04-2.06-2.03-1.13,0-2.04,.93-2.03,2.06Z"/></g></g></g><g id="Leaf9"><g><path class="cls-4" d="M904.33,1408.75s45.88,72.53,129.98,38.79c84.1-33.73,144.42-42.27,156.9,5.88,12.48,48.16-103.86,64.36-109.52,78.78-5.67,14.43,60.43,12.64,102.25,2.29,45.26-11.2,87.48-7.26,95.07,23.59,8.12,33-22.98,46.77-56.05,53.41-29.2,5.87-60.85,7.15-50.43,17.97,10.41,10.81,86.67,5.21,118.29,21.89,52.65,27.78,40.94,71.85,14.52,79.16-43.11,11.94-107.17-25.02-81.14,1.91,24.43,25.28,90.17,73.02,66.08,104.79-22.1,29.15-56.09,17.27-83.44-15.96-25.73-31.26-43.89-77.87-53.85-59.1-10.91,20.54,18.3,61.99-7.05,78.39-21.71,14.05-56.92-10.19-61.48-40.31-4.56-30.11,1.67-109.42-14.78-94.31-19.54,17.94-16.14,104.63-49.92,94.25-51.12-15.7-34.25-84.54-22.08-131.46,12.16-46.92-4.61-46.75-20.95-24.18-16.35,22.57-35.81,107.12-79.36,81.76-43.55-25.35-15-89.96-1.03-120.25,13.97-30.28,32.04-63.38,6.69-109.09-25.35-45.71-38.33-67.05-38.33-67.05l39.63-21.16Z"/><g><path class="cls-27" d="M894.31,1445.64s57.77,59.72,112.12,115.57c29.17,29.98,57.36,58.84,75.1,76.76,31.42,31.73,81.86,81.26,119.15,121.03,22.58,24.07,40.33,44.44,45.76,54.93,1.08,2.12,3.67,2.97,5.79,1.89,2.12-1.08,2.97-3.67,1.89-5.79-5.44-10.93-23.34-32.39-46.3-57.63-36.75-40.4-86.49-90.77-117.48-123.02-17.45-18.17-45.16-47.43-73.85-77.81-53.48-56.66-110.32-117.23-110.32-117.23-3.12-3.28-8.31-3.4-11.59-.28-3.28,3.12-3.4,8.31-.28,11.59Z"/><path class="cls-27" d="M1262.32,1688.56s-40.68-8.23-78.53-12.35c-21.34-2.32-41.78-3.27-53.84-.89-2.21,.47-3.62,2.65-3.15,4.86,.48,2.21,2.65,3.62,4.86,3.15,11.46-2.65,31.05-2.24,51.53-.69,37.74,2.85,78.42,9.7,78.42,9.7,1.04,.2,2.05-.5,2.24-1.54,.19-1.04-.5-2.05-1.54-2.24Z"/><path class="cls-27" d="M1123.4,1798.07s-11.23-43.82-15.41-86.32c-2.1-21.38-2.45-42.4,1.49-57.11,.55-2.2-.78-4.42-2.97-4.98-2.19-.56-4.42,.77-4.98,2.97-3.67,15.53-2.82,37.53,.04,59.84,5.49,42.74,18.11,86.61,18.11,86.61,.28,1.02,1.33,1.63,2.36,1.35,1.02-.28,1.63-1.33,1.35-2.36Z"/><path class="cls-27" d="M1223.83,1568.97s-52.84,1.23-100.14,11.99c-25.39,5.77-49.14,14.41-62.78,26.79-1.66,1.54-1.75,4.13-.21,5.79,1.54,1.66,4.14,1.75,5.79,.21,12.57-12.01,34.89-20.44,58.71-26.51,46.52-11.86,98.77-14.42,98.77-14.42,1.06-.04,1.89-.93,1.85-1.99-.04-1.06-.93-1.89-1.99-1.85Z"/><path class="cls-27" d="M1018.73,1763.53s1.59-53.5,10.29-103.42c4.39-25.18,10.56-49.45,19.35-65.22,1.07-1.99,.34-4.47-1.65-5.55-1.99-1.07-4.48-.33-5.55,1.65-8.71,16.58-14.62,41.86-18.51,68.09-7.5,50.47-7.76,104.38-7.76,104.38-.02,1.06,.83,1.94,1.89,1.95,1.06,.02,1.93-.83,1.95-1.89Z"/><path class="cls-27" d="M1132.32,1472.52s-53.51,1.74-101.03,11.92c-26.34,5.65-50.79,14.03-63.87,25.84-1.66,1.54-1.76,4.14-.22,5.79,1.54,1.66,4.13,1.76,5.79,.22,12.04-11.45,35.03-19.6,59.73-25.56,46.81-11.3,99.77-14.37,99.77-14.37,1.06-.05,1.88-.95,1.83-2.01-.05-1.06-.95-1.88-2.01-1.83Z"/><path class="cls-27" d="M926.9,1679.45s4.27-53.8,14.93-108.77c4.82-24.83,10.94-49.9,18.57-70.3,.77-2.13-.33-4.47-2.46-5.24-2.13-.77-4.48,.33-5.24,2.46-7.27,20.92-12.92,46.56-17.22,71.93-9.4,55.5-12.41,109.67-12.41,109.67-.07,1.05,.73,1.97,1.79,2.05,1.06,.07,1.98-.73,2.05-1.79Z"/></g></g></g><g id="Leaf7"><g><path class="cls-27" d="M745.68,1523.67s-55.74,143.24,34.83,270.79c90.57,127.54,260.72,117.28,260.72,117.28,0,0-7.91-130.92-38.71-200.07-49.35-110.83-256.84-187.99-256.84-187.99Z"/><path class="cls-22" d="M766.04,1570.63s5.03,17.43,16.51,44.6c5.32,12.6,12.07,27.06,20.34,42.76,5.57,10.58,11.86,21.62,18.95,32.81,9.72,15.35,20.96,30.9,32.87,46.48,15.21,19.88,31.84,39.55,49.41,57.93,27.81,29.11,57.86,54.81,88.68,72.74,3.74,2.43,8.74,1.35,11.17-2.39,2.42-3.74,1.35-8.74-2.39-11.17-27.51-19.76-53.21-47.14-77.21-76.92-22.85-28.35-43.29-59.29-62.1-88.16-8.83-13.56-17.25-26.67-25.37-38.82-10.73-16.06-20.69-30.42-29.25-42.77-18.31-26.41-29.97-42.7-29.97-42.7-1.55-3.21-5.42-4.57-8.63-3.02-3.22,1.54-4.57,5.41-3.02,8.63Z"/></g></g><g id="Leaf6"><g><g><path class="cls-36" d="M431.92,1635.9s39.08-11.28,82.09-13.99c28.06-1.77,57.84-.02,79.11,11.41,12.54,6.74,17.23,22.76,18.6,41.47,3.52,47.99-16.92,113.84-16.92,113.84-.82,2.64,.65,5.64,3.28,6.68,2.63,1.04,5.43-.26,6.25-2.9,0,0,20.98-68.07,17.34-117.64-1.7-23.1-9-42.21-24.47-50.52-22.74-12.22-54.54-14.51-84.52-12.62-44.06,2.78-84.09,14.34-84.09,14.34-2.59,.75-3.95,3.58-3.03,6.33,.92,2.74,3.77,4.36,6.37,3.61Z"/><path class="cls-36" d="M336.61,1811.67s50.81-5.81,74.52,3.18c2.64,1,5.41-.35,6.19-3.01,.78-2.66-.74-5.63-3.38-6.63-25.16-9.55-79.11-3.79-79.11-3.79-2.71,.3-4.51,2.84-4.01,5.66,.49,2.82,3.09,4.88,5.8,4.58Z"/><path class="cls-36" d="M399.08,1725.59s23.84-12.72,49.63-16.64c16.14-2.45,33.16-1.69,44.84,9.17,3.2,2.97,5.43,7.41,7.09,12.79,2.85,9.25,3.85,21.11,3.73,34.13-.45,52.55-19.35,123.27-19.35,123.27-.72,2.68,.86,5.62,3.52,6.57,2.66,.94,5.4-.47,6.11-3.16,0,0,19.23-72.19,19.69-125.82,.12-14.28-1.1-27.29-4.23-37.43-2.32-7.54-5.73-13.6-10.22-17.77-13.94-12.96-34.1-14.87-53.36-11.94-27.31,4.15-52.55,17.6-52.55,17.6-2.37,1.26-3.15,4.36-1.75,6.9,1.4,2.55,4.46,3.59,6.83,2.33Z"/><path class="cls-36" d="M370.16,1868.28s132.45-160.18,188.41-206.26c55.38-45.6,103.78-61.75,103.78-61.75,2.56-.85,3.81-3.74,2.8-6.45-1.02-2.71-3.92-4.23-6.48-3.38,0,0-49.77,16.49-106.66,63.34-56.31,46.37-189.63,207.48-189.63,207.48-1.72,2.08-1.37,5.34,.77,7.28,2.15,1.94,5.29,1.82,7.01-.26Z"/></g><path class="cls-11" d="M339.04,1888.08c5.46,15.17,34.17,25.1,43.84,5.86,9.67-19.25,1.47-40.5-15.8-44.44-17.27-3.94-37.79,11.49-28.04,38.58Z"/><path class="cls-11" d="M310.34,1814.1c3.73,10.37,23.37,17.17,29.98,4.01,6.61-13.16,1.01-27.69-10.8-30.39-11.81-2.69-25.84,7.86-19.18,26.38Z"/><path class="cls-11" d="M576.71,1802.4c5.46,15.17,34.17,25.1,43.84,5.86,9.67-19.25,1.47-40.5-15.8-44.44-17.27-3.94-37.79,11.49-28.04,38.58Z"/><path class="cls-11" d="M408.04,1636.07c3.76,10.46,23.56,17.3,30.22,4.04,6.67-13.27,1.01-27.91-10.89-30.63-11.91-2.71-26.05,7.92-19.33,26.59Z"/><path class="cls-11" d="M376.68,1732.72c4.72,13.12,29.57,21.72,37.93,5.07,8.37-16.65,1.27-35.04-13.67-38.44-14.95-3.41-32.69,9.94-24.26,33.38Z"/><path class="cls-11" d="M473.64,1901.98c3.16,8.79,19.79,14.54,25.39,3.39,5.6-11.15,.85-23.46-9.15-25.74-10.01-2.28-21.89,6.66-16.24,22.35Z"/></g></g><g id="Leaf5"><g><path class="cls-1" d="M622.58,1303.83s6.79-1.52,13.93,1.95c7.74,3.76,14.56,8.99,14.56,8.99l-8.12-68.29s96.93-139.49,89.87-278.1l-289.37-290.28-170.06,44.22-65.08,238.99,60.02,205.96,152.03,117.91,202.22,18.65Z"/><g class="cls-2"><g><g><path class="cls-35" d="M655.05,1000.91s3.54,62.1-6.11,126.48c-6.3,42-18.05,85.1-40.69,111.74-13.34,15.7-37.19,16.07-63.78,10.47-68.18-14.38-153.83-71.3-153.83-71.3-3.44-2.28-8.09-1.34-10.37,2.1-2.28,3.44-1.34,8.09,2.1,10.37,0,0,88.58,58.61,159.01,73.46,32.82,6.92,61.81,3.96,78.27-15.41,24.19-28.48,37.34-74.32,44.07-119.2,9.89-65.94,6.26-129.55,6.26-129.55-.23-4.12-3.77-7.27-7.89-7.04-4.12,.24-7.27,3.77-7.04,7.89Z"/><path class="cls-35" d="M439.18,789.05s-7.77,77.12-27.75,108.33c-2.22,3.47-1.21,8.1,2.27,10.33,3.48,2.23,8.11,1.21,10.33-2.26,21.21-33.13,30.03-114.84,30.03-114.84,.43-4.11-2.56-7.79-6.66-8.21-4.1-.43-7.79,2.56-8.21,6.66Z"/><path class="cls-35" d="M539.96,916.04s10.32,40.26,7.74,79.8c-1.62,24.75-8.01,49.47-26.84,62.23-5.16,3.5-12.06,4.97-20.1,5.22-13.82,.42-30.71-2.94-48.88-8.42-73.3-22.08-166.24-78.71-166.24-78.71-3.53-2.15-8.13-1.03-10.28,2.5-2.15,3.53-1.03,8.13,2.5,10.28,0,0,94.89,57.72,169.71,80.26,19.92,6,38.49,9.5,53.64,9.04,11.27-.34,20.8-2.89,28.03-7.79,22.48-15.22,31.45-44.11,33.38-73.64,2.74-41.86-8.17-84.48-8.17-84.48-1.03-4-5.1-6.41-9.1-5.39-4,1.03-6.41,5.1-5.39,9.1Z"/><path class="cls-35" d="M349.57,815.34s182.47,260.14,229.38,361.25c46.42,100.07,99.35,316.73,99.35,316.73,.39,4.11,4.04,7.13,8.15,6.74,4.11-.38,7.13-4.04,6.74-8.15,0,0-52.99-218.82-100.67-321.61-47.2-101.74-230.7-363.54-230.7-363.54-2.37-3.38-7.04-4.2-10.42-1.83-3.38,2.37-4.2,7.04-1.83,10.42Z"/></g><path class="cls-11" d="M331.63,761.49c-22.91,1.85-45.78,40.05-21.9,62.11,23.88,22.07,56.14,18.67,67.05-5.13,10.91-23.81-4.25-60.28-45.15-56.98Z"/><path class="cls-11" d="M444,749.42c-15.67,1.26-31.3,27.38-14.97,42.47,16.33,15.09,38.39,12.77,45.85-3.51,7.46-16.28-2.9-41.22-30.88-38.96Z"/><path class="cls-11" d="M377.05,1146.06c-22.91,1.85-45.78,40.05-21.9,62.11,23.88,22.07,56.14,18.67,67.05-5.13,10.91-23.81-4.25-60.28-45.15-56.98Z"/><path class="cls-11" d="M662.28,965.7c-15.79,1.27-31.55,27.6-15.09,42.81,16.46,15.21,38.7,12.87,46.21-3.54,7.52-16.41-2.93-41.55-31.12-39.27Z"/><path class="cls-11" d="M537,880.19c-19.82,1.6-39.6,34.65-18.94,53.74,20.66,19.1,48.57,16.15,58.01-4.44,9.43-20.6-3.68-52.15-39.06-49.3Z"/><path class="cls-11" d="M270.1,953.84c-13.27,1.07-26.51,23.19-12.68,35.98,13.83,12.78,32.52,10.81,38.84-2.97,6.32-13.79-2.46-34.91-26.15-33Z"/></g></g></g></g><g id="Bush3"><path class="cls-21" d="M681.86,1233.69s-61.84-61.57,4.93-103.71c51.48-32.49,92.65,23.63,92.65,23.63,0,0-63.13-81.09,10.93-122.89,55.38-31.26,96.94,24.84,96.94,24.84,0,0-41.19-77.34,36.67-99.77,79.31-22.85,97.15,46.02,97.15,46.02,0,0,32-62.81,89.8-22.66,52.81,36.69,12.66,72.37,12.66,72.37,0,0,33.53-29.91,65.41-.99,23.69,21.49-8.04,44.63-8.04,44.63,0,0,21-8.03,44.59-2.9-10.87,103.9-70.06,607.1-89.07,662.69-27.16-4.25-332.58-29.86-492.33-66.8-30.49-7.05-112.66-66.58-105.76-170.38,7.06-106.21,52.51-174.26,115.92-195.27-33.22-11.1-43.22-48.59-36-62.14,16.01-30.07,63.55-26.65,63.55-26.65Z"/></g><g id="Leaf4"><g><path class="cls-19" d="M697.25,1281.3c-110.94-26.28-126.78-191.15-88.14-293.4,30.26-80.07,60.77-11.98,89.46-9.75,34.76,2.7-18.92-100.29,17.31-144.8,28.6-35.13,60.27-17.99,75.81-12.43,15.54,5.55,17.48-110.41,98.33-97.62,67.95,10.75,54.7,72.83,41.13,101.37-13.57,28.54,2.04,40.55,21.56,44.38,31.08,6.1,40.81,33.89,3.89,83.37-36.92,49.49-60.56,71.55-47.37,82.34,13.19,10.78,71.16-15.73,85.83,14.3,18.02,36.88-32.92,100.82-64.32,141.86-51.38,67.16-82.68,126.11-233.49,90.38Z"/><g><path class="cls-7" d="M883.1,770.36s-100.95,184.66-154.24,368.89c-28.82,99.63-42.94,199.16-22.44,270.91,3.08,9.95,13.65,15.53,23.6,12.46,9.94-3.08,15.53-13.65,12.45-23.59-21.94-65.97-10.99-159.1,11.87-252.99,44.91-184.47,137.03-371.37,137.03-371.37,1.19-2.29,.3-5.1-1.99-6.29-2.29-1.19-5.11-.3-6.3,1.99Z"/><path class="cls-7" d="M657.77,1028.12s3.93,24.46,12.61,56.7c4.63,17.19,10.66,36.5,17.91,55.44,3.76,9.83,7.98,19.5,12.43,28.73,7.46,15.45,15.79,29.56,24.39,41.02,2.13,2.91,5.8,4.23,9.3,3.37,37.43-10.07,68.43-23.67,93.25-37.77,53.69-30.51,78.6-62.65,78.6-62.65,1.53-1.86,1.27-4.63-.6-6.16-1.86-1.53-4.63-1.26-6.16,.6,0,0-25.61,29.22-78.36,56.1-23.07,11.75-51.31,23.09-84.97,31.24-6.5-9.9-12.59-21.54-18.47-33.88-4.25-8.91-8.33-18.21-12.33-27.52-7.85-18.24-15.04-36.65-21.21-52.95-11.68-30.85-19.58-53.94-19.58-53.94-.46-1.88-2.37-3.02-4.24-2.56-1.87,.47-3.02,2.37-2.55,4.24Z"/><path class="cls-7" d="M749,866.5s-2.47,14.82-2,36.88c.23,10.93,1.25,23.54,3.65,36.9,2.12,11.75,5.37,24.03,10.02,36.11,4.47,11.61,10.42,22.93,17.58,33.61,2.15,3.3,6.2,4.81,9.99,3.74,27.74-8.63,52.99-22.18,73.92-36.41,38.01-25.85,61.8-53.25,61.8-53.25,1.65-1.77,1.55-4.54-.21-6.19s-4.54-1.55-6.19,.21c0,0-24.81,24.65-62.9,47.47-18.75,11.24-40.73,22.06-64.68,29.04-4.62-8.13-8.38-16.62-11.73-25.09-4.41-11.13-7.89-22.29-10.69-32.98-3.26-12.46-5.66-24.17-7.36-34.4-3.46-20.91-4.2-35.23-4.2-35.23,.12-1.93-1.35-3.59-3.28-3.7-1.93-.11-3.59,1.36-3.71,3.28Z"/><path class="cls-7" d="M840.98,765.79s-2.08,9.77-3.21,23.28c-.25,3-.36,6.11-.37,9.37-.02,4.62,.17,9.39,.63,14.11,.43,4.33,1.16,8.58,2,12.59,1.6,7.6,3.8,14.36,6.31,19.36,.95,2.12,2.73,3.75,4.91,4.53,2.19,.78,4.6,.63,6.67-.41l54.65-32c2.16-1.08,3.04-3.71,1.96-5.87-1.08-2.16-3.71-3.03-5.87-1.95l-48.98,20.62c-.32-1.56-.62-3.19-.92-4.88-.8-4.5-1.39-9.39-2.13-14.33-.75-4.94-1.61-9.89-2.43-14.65-.73-4.23-1.5-8.19-2.26-11.86-2.2-10.67-3.97-17.95-3.97-17.95,0-1.93-1.58-3.49-3.52-3.49-1.93,0-3.49,1.58-3.49,3.52Z"/></g></g></g><g id="Bush2"><path class="cls-22" d="M382.31,1609.12c167.17,32.33,356.24,42.99,517.76,61.61,14.11,1.63,104.9-109.54,83.71-211.45-13.67-65.75-71.72-59.3-71.72-59.3,0,0,30.1-34.27-13.63-60.4-27.93-16.69-59.88,6.87-61.05,16.6,0,0,2.87-26.21-13.72-34.93-19.77-10.38-31.8,3.89-31.8,3.89,0,0,17.94-33.12-.57-49.1-26.69-23.04-49.65,1.6-49.65,1.6,0,0-1.26-54.02-54.7-59.48-53.44-5.47-74.32,35.22-73.37,57.28,0,0-14.67-60.2-70.1-69.1-67.61-10.86-139.15,43.44-116.03,123.28,0,0-50.15,16.95-69.07,70.9-14.22,40.53-20.75,199.95,23.94,208.59Z"/></g><g id="Leaf3"><g><g><path class="cls-7" d="M986.63,1453.51s-29.37,25.72-64.97,45.78c-23.22,13.09-49.1,23.9-71.02,22.98-12.92-.54-22.31-12.21-29.8-27.54-19.19-39.3-24.07-103.67-24.07-103.67-.2-2.58-2.46-4.52-5.04-4.32-2.58,.2-4.52,2.46-4.32,5.04,0,0,5.17,66.47,25,107.07,9.24,18.92,21.89,32.13,37.84,32.8,23.43,.99,51.2-10.2,76.02-24.19,36.47-20.55,66.55-46.9,66.55-46.9,1.95-1.7,2.15-4.67,.44-6.62-1.71-1.95-4.68-2.14-6.62-.44Z"/><path class="cls-7" d="M1008.21,1264.88s-41.18,25.92-64.34,28.07c-2.58,.24-4.48,2.53-4.24,5.11,.24,2.58,2.53,4.48,5.11,4.24,24.59-2.28,68.45-29.45,68.45-29.45,2.2-1.37,2.87-4.27,1.5-6.47-1.37-2.19-4.27-2.87-6.47-1.5Z"/><path class="cls-7" d="M984.23,1363.77s-15.95,20.64-36.52,34.63c-12.88,8.75-27.58,15.13-41.17,10.73-3.72-1.2-7.11-4.05-10.34-7.93-5.54-6.68-10.4-16.34-14.7-27.45-17.36-44.81-25.19-112.67-25.19-112.67-.3-2.57-2.63-4.42-5.2-4.12-2.57,.3-4.42,2.63-4.12,5.2,0,0,8.05,69.25,25.76,114.99,4.72,12.18,10.15,22.72,16.23,30.05,4.52,5.45,9.46,9.18,14.67,10.87,16.21,5.25,33.97-1.46,49.34-11.89,21.78-14.8,38.67-36.65,38.67-36.65,1.58-2.05,1.21-5-.85-6.59-2.05-1.58-5-1.2-6.58,.84Z"/><path class="cls-7" d="M960.61,1230.66s-58.36,190.73-90.32,252.97c-31.62,61.6-67.26,95.29-67.26,95.29-1.89,1.78-1.97,4.75-.19,6.63,1.78,1.89,4.75,1.97,6.64,.19,0,0,36.69-34.56,69.17-97.83,32.15-62.63,90.94-254.51,90.94-254.51,.76-2.48-.64-5.11-3.11-5.86-2.48-.76-5.11,.64-5.86,3.11Z"/></g><path class="cls-11" d="M980.34,1200.99c-9.76-10.63-37.49-7.21-39.2,13.13-1.71,20.34,12.42,35,28.42,31.21,16-3.79,28.2-25.37,10.78-44.34Z"/><path class="cls-11" d="M1029.69,1251.97c-6.67-7.27-25.64-4.93-26.81,8.98-1.17,13.91,8.5,23.93,19.43,21.34,10.94-2.59,19.29-17.35,7.37-30.32Z"/><path class="cls-11" d="M807.49,1371.9c-9.76-10.63-37.49-7.21-39.2,13.13-1.71,20.34,12.42,35,28.42,31.21,16-3.79,28.2-25.37,10.78-44.34Z"/><path class="cls-11" d="M1006.85,1443.5c-6.72-7.33-25.84-4.97-27.02,9.05-1.18,14.02,8.56,24.12,19.59,21.51,11.03-2.61,19.44-17.48,7.43-30.56Z"/><path class="cls-11" d="M1000.84,1348.48c-8.44-9.2-32.44-6.24-33.91,11.36-1.48,17.6,10.75,30.28,24.59,27,13.84-3.28,24.4-21.95,9.33-38.36Z"/><path class="cls-11" d="M861.37,1244.77c-5.65-6.16-21.72-4.17-22.7,7.6-.99,11.78,7.2,20.27,16.46,18.08,9.26-2.2,16.33-14.69,6.25-25.68Z"/></g></g><g id="Frame"><g><path class="cls-18" d="M435.62,689.03l-127.52,1043.01,718.73,87.87,127.52-1043.01-718.73-87.87Zm51.45,65.78l601.5,73.54-113.19,925.79-601.5-73.54,113.19-925.79Z"/><path class="cls-30" d="M1088.57,828.35l-113.19,925.79,51.45,65.78,127.52-1043.01-65.78,51.45ZM373.88,1680.6l-65.78,51.45,127.52-1043.01,51.45,65.78-113.19,925.79Z"/><path class="cls-29" d="M461.28,721.85l-120.37,984.53,660.25,80.72,120.37-984.53-660.25-80.72Zm25.78,32.96l601.5,73.54-113.19,925.79-601.5-73.54,113.19-925.79Z"/><path class="cls-24" d="M340.91,1706.38l32.97-25.78,601.5,73.54h0l25.78,32.97-660.25-80.72Zm780.61-903.81l-32.96,25.78-601.5-73.54-25.78-32.96,660.25,80.72Z"/></g></g><g id="Leaf2"><g><path class="cls-1" d="M461.3,1475.31c-12.91,16.9-256.42-432.52-53.91-481,171.38-41.03,276.12,470.55,234.24,466.27-41.88-4.29-58.24,27.6-57.5,44.9,0,0-11.5-47.18-54.94-54.16-28.15-4.52-53.25,4.84-67.89,23.99Z"/><g class="cls-12"><g><path class="cls-34" d="M602.2,1612.07c73.16-18.08,18.31-304.38-29.94-426.84-48.26-122.46-105.19-203.52-184.63-170.55-79.43,32.97-38.04,179.32-1.77,270.83,36.27,91.51,157.24,341.17,216.34,326.56Z"/><g><path class="cls-6" d="M595.47,1588.83c-1.14,0-2.19-.76-2.5-1.91-54.43-200.02-116.21-377.41-188.89-542.32-.58-1.31,.02-2.84,1.33-3.42,1.31-.58,2.84,.02,3.42,1.33,72.78,165.14,134.65,342.78,189.15,543.05,.38,1.38-.44,2.81-1.82,3.18-.23,.06-.46,.09-.68,.09Z"/><path class="cls-6" d="M440.66,1126.64c-.28,0-.57-.05-.85-.14-1.35-.47-2.07-1.95-1.61-3.3l25.03-72.48c.47-1.36,1.95-2.07,3.3-1.61,1.35,.47,2.07,1.95,1.61,3.3l-25.03,72.48c-.37,1.07-1.38,1.75-2.45,1.75Z"/><path class="cls-6" d="M469.09,1197.85c-.41,0-.82-.1-1.21-.3-1.27-.67-1.76-2.24-1.09-3.51l45.22-85.96c.67-1.27,2.23-1.75,3.51-1.09,1.27,.67,1.76,2.24,1.09,3.51l-45.22,85.96c-.47,.88-1.37,1.39-2.3,1.39Z"/><path class="cls-6" d="M449.37,1148.13c-.4,0-.8-.09-1.19-.29l-65.77-33.85c-1.27-.66-1.78-2.22-1.12-3.49,.66-1.27,2.22-1.78,3.49-1.12l65.77,33.85c1.27,.66,1.78,2.22,1.12,3.49-.46,.89-1.37,1.41-2.31,1.41Z"/><path class="cls-6" d="M479.71,1228.55c-.29,0-.58-.05-.86-.15l-88.72-31.26c-1.35-.48-2.06-1.96-1.59-3.31,.48-1.35,1.96-2.06,3.31-1.59l88.72,31.26c1.35,.48,2.06,1.96,1.59,3.31-.38,1.07-1.38,1.73-2.45,1.73Z"/><path class="cls-6" d="M496.62,1272.35c-.53,0-1.06-.16-1.52-.49-1.16-.84-1.42-2.46-.59-3.62l50.67-70.2c.84-1.16,2.46-1.42,3.62-.59,1.16,.84,1.42,2.46,.59,3.62l-50.67,70.2c-.51,.7-1.3,1.08-2.11,1.08Z"/><path class="cls-6" d="M516.47,1329.39c-.27,0-.55-.04-.83-.14l-85.87-28.97c-1.36-.46-2.09-1.93-1.63-3.29,.46-1.36,1.93-2.08,3.29-1.63l85.87,28.97c1.36,.46,2.09,1.93,1.63,3.29-.37,1.08-1.38,1.77-2.46,1.77Z"/><path class="cls-6" d="M531.62,1374.93c-.55,0-1.11-.18-1.58-.54-1.14-.87-1.35-2.5-.47-3.64l51.91-67.49c.87-1.14,2.5-1.35,3.64-.47,1.14,.87,1.35,2.5,.47,3.64l-51.91,67.49c-.51,.67-1.28,1.01-2.06,1.01Z"/><path class="cls-6" d="M542.94,1411.37c-.25,0-.51-.04-.77-.12l-90.58-28c-1.37-.42-2.14-1.88-1.71-3.25,.42-1.37,1.88-2.13,3.25-1.71l90.58,28c1.37,.42,2.14,1.88,1.71,3.25-.34,1.11-1.37,1.83-2.48,1.83Z"/><path class="cls-6" d="M554.75,1447.86c-.54,0-1.08-.17-1.54-.51-1.15-.85-1.4-2.48-.55-3.63l41.88-56.74c.85-1.16,2.47-1.4,3.63-.55,1.15,.85,1.4,2.48,.55,3.63l-41.88,56.74c-.51,.69-1.29,1.05-2.09,1.05Z"/><path class="cls-6" d="M570.63,1504.17c-.37,0-.74-.08-1.09-.24l-78.77-36.64c-1.3-.6-1.86-2.15-1.26-3.45,.6-1.3,2.15-1.87,3.45-1.26l78.77,36.64c1.3,.6,1.86,2.15,1.26,3.45-.44,.94-1.38,1.5-2.35,1.5Z"/><path class="cls-6" d="M581.84,1537.12c-.39,0-.78-.09-1.15-.27-1.28-.63-1.81-2.19-1.18-3.48l24.78-50.14c.63-1.28,2.19-1.81,3.48-1.18,1.28,.63,1.81,2.19,1.18,3.48l-24.78,50.14c-.45,.92-1.37,1.45-2.33,1.45Z"/></g></g></g></g></g><g id="Leaf1"><g><path class="cls-1" d="M1348.39,1219.18c45.67,5.42,6.1,151.78-90.8,272.31-71.57,89.03-162.17,150.37-162.17,150.37,0,0,33.38-35.84,1.65-64.99-32.93-30.26-61.49-1.12-61.49-1.12,0,0,20.23-70.86-49.46-90.27,49.08-83.49,283.99-275.59,362.26-266.3Z"/><g class="cls-14"><g><path class="cls-23" d="M938.96,1613.67c13.21,37.64,130.89,30.54,219.72-43.36,45.72-38.04,93.3-101.82,129.37-164.15,5.74-9.93-55.27-2.98-50.17-12.72,4.95-9.45,76.05-35.6,80.3-44.67,24.33-51.91,36.41-96.02,27-113.59-23.38-43.69-227.37,150.67-302.21,219.46-8.32,7.64-20.01,70.89-28.42,79.36-8.15,8.21-3.04-56.68-10.73-48.08-36.16,40.51-74.03,101.69-64.88,127.76Z"/><path class="cls-11" d="M1166.78,1508.39s-9.18,2.66-20.63,6.86c-9.76,3.58-20.95,8.49-30.44,11.68-4.99,1.68-9.34,3.06-12.66,3.63-1.85,.14-3.23,1.75-3.09,3.6,.14,1.85,1.75,3.23,3.6,3.09,7.78,.12,21.62-2.14,34.97-5.12,4.69-1.04,9.3-2.11,13.49-3.36,11.28-3.37,19.62-6.92,19.62-6.92,3.72-1.34,5.65-5.44,4.31-9.16-1.34-3.72-5.44-5.65-9.16-4.31Zm52.32-66.99s-4.81,.44-11.28,1.6c-2.32,.41-4.84,.94-7.43,1.61-13.01,3.34-27.51,8.19-27.51,8.19-1.83,.3-3.07,2.03-2.77,3.85,.3,1.83,2.03,3.07,3.85,2.77,0,0,15.29-.01,28.68-.98,2.66-.19,5.22-.49,7.56-.84,6.5-.96,11.2-2.07,11.2-2.07,3.9-.64,6.55-4.32,5.91-8.22-.64-3.9-4.32-6.55-8.22-5.91Zm101.67-180.88s-77.32,95.81-155.69,181.16c-41.86,45.6-84.06,88.14-115.08,111.87-48.58,37.16-92.2,67.58-132.61,91.76-34.48,20.63-66.66,36.67-97.59,48.49-7.72,2.8-16.27-1.2-19.07-8.92s1.2-16.27,8.92-19.07c29.92-10.25,61.17-24.52,94.78-43.05,40.55-22.36,84.46-50.76,133.49-85.59,31.19-22.16,73.91-62.44,116.49-105.64,81.11-82.29,161.53-175.05,161.53-175.05,1.11-1.33,3.1-1.51,4.43-.39,1.33,1.11,1.51,3.1,.39,4.43Zm-197.65,138.37s-2.47,4.54-5.3,11.15c-1,2.33-2.02,4.93-2.96,7.68-3.65,10.72-6.83,23.18-8.15,30.22-.55,1.77,.43,3.65,2.2,4.21,1.77,.55,3.65-.43,4.2-2.2,2.39-5.27,7.26-13.5,11.86-21.74,1.81-3.24,3.63-6.37,5.1-9.38,3.77-7.76,6.05-13.95,6.05-13.95,1.65-3.59,.08-7.85-3.51-9.5-3.59-1.65-7.84-.08-9.5,3.51Z"/></g></g></g></g><g id="Woman"><g><path class="cls-9" d="M747.29,934.35c58.12-2.68,130.29,17.68,152.07,76.5,6.86,18.52,4.98,49.93,15.83,92.86,10.89,43.12,70.05,171.66,61.16,188.37-27.41,51.47-185.49,46.71-253.68,37.11-68.52-9.65-99.62-132.29-100.63-215.17-.46-38,9.13-80.63,18.45-104.86,17.55-45.63,64.54-72.86,106.81-74.81Z"/><g><path class="cls-1" d="M408.53,1483.43l13.96-114.18,110.32,41.55,68.42-127.58,53.87-62.51,49.05-10.27,25.88,78-28.7,142.01-100.24,105.99-70.38,24.77-122.18-77.78Zm-65.71-43.15l13.69-111.94-47.71,2.65-27.71,54.83-.8,30.75,62.53,23.71Z"/><g class="cls-13"><g><path class="cls-31" d="M513.99,1469.79c9.31-26.74,86.1-142.94,100.78-167.44,37.15-62,80.16-85.93,101.62-59.16,21.47,26.76,12.34,48.63-6.28,79.9-20.27,34.04-35.76,69.97-76.83,131.52-6.47,9.69-37.16,52.92-51.29,63.47-39.21,29.27-81.7-8.94-68-48.28Z"/><path class="cls-16" d="M513.99,1469.79c9.31-26.74,86.1-142.94,100.78-167.44,37.15-62,80.16-85.93,101.62-59.16,21.47,26.76,12.34,48.63-6.28,79.9-20.27,34.04-35.76,69.97-76.83,131.52-6.47,9.69-37.16,52.92-51.29,63.47-39.21,29.27-81.7-8.94-68-48.28Z"/><path class="cls-31" d="M369.82,1391.34c-5.81-6.63-5.51-18.51-3.63-27.63,1.87-9.12-6.25-11.7-10.34-18.59-4.09-6.89,3.54-12.86,10.07-9.87,6.53,2.99,22.53,22.04,26.37,30.37,3.83,8.34,8.41,17.32,.8,26.98-5.5,6.99-17.31,5.54-23.27-1.26Z"/><path class="cls-31" d="M385.6,1373.77c16.7,7.67,154.21,56.81,173.35,65.8,66.2,31.08,28.96,110.8-25.84,85.02-8.1-3.81-183.34-89.69-189.32-92.09-14.03-5.64-32.16-12.66-42.68-17.99-8.42-4.27-3.88-17.72,2.37-16.66,8.85,1.5,21.07,5.34,21.07,5.34,0,0-8.55-3.54-18.7-8.84-6.09-3.19-1.6-17.23,4.74-15.2,11.2,3.58,19.99,5.81,19.99,5.81,0,0-14.22-4.88-19.08-11.49-2.08-2.83,1.74-10.13,4.95-11.03,5.99-1.68,21.72,6.4,21.72,6.4-4.91-2.99-13.06-6.72-17.34-11.82-2.66-3.17,2.65-11.04,7.32-10.16,12.61,2.38,28.03,13.4,57.43,26.92Z"/><path class="cls-16" d="M409.48,1380.38c17.67,5.06,130.32,50.21,149.46,59.19,66.2,31.08,28.96,110.8-25.84,85.02-8.1-3.81-153.36-69.42-159.34-71.83-14.03-5.64,20.93-76.62,35.71-72.39Z"/><path class="cls-10" d="M385.13,1454.82c-.16,0-.32-.01-.48-.05-1.31-.27-2.16-1.54-1.9-2.85,.34-1.69,8.61-41.68,32.04-63.84,.97-.92,2.5-.88,3.42,.1,.92,.97,.88,2.5-.1,3.42-22.31,21.09-30.54,60.88-30.62,61.28-.23,1.15-1.24,1.94-2.37,1.94Z"/></g></g></g><g><path class="cls-15" d="M780.2,1219.01c29.91,3.35,95.59,18.19,93.28,80.37-1.12,30.02-9.44,104.35-11.15,153.96-.93,26.97,12.48,29.78,16.61,61.34,4.34,33.19-244.07,55.52-241.11,14.96,2.05-28.03,10.97-46.72,9.6-68.37-2.11-33.35-15.66-59.28-19.8-87.97-3.32-23.03,12.45-77.61,16.69-91.09,17.72-56.25,66.71-70.95,135.87-63.21Z"/><path class="cls-11" d="M718.69,1259.97c13.68,19.8,26.79,35.53,36.33,33.9,9.85-1.69,34.08-21.8,40.42-27.57,25.67-23.36,22.47-43.16,12.26-47.64-14.18-6.24-42.63-9.26-65.84-8.29-36.28,1.51-43.9,9.74-53.55,25.63-5.73,9.44-15.54,32.74-9.51,40.21,4.58,5.68,20.95,.34,39.88-16.24Z"/><g><path class="cls-10" d="M710.15,1383.26c-1.24,0-2.3-.95-2.41-2.21-2.29-26.02,2.34-68.72,5.86-95.43-10.36,29.32-27.22,78.02-29.72,91.11-.25,1.31-1.52,2.18-2.83,1.92-1.31-.25-2.18-1.52-1.93-2.83,3.69-19.37,36.64-110.77,38.04-114.65,.42-1.17,1.67-1.84,2.88-1.52,1.21,.31,1.98,1.5,1.79,2.73-.13,.79-12.68,79.67-9.28,118.25,.12,1.33-.87,2.51-2.2,2.62-.07,0-.14,0-.22,0Z"/><path class="cls-10" d="M727.33,1328.4c-.88,0-1.8-.19-2.73-.59-10.66-4.52-10.22-34.17-8.85-52.74-7.6,14.91-20.58,38.14-28.89,40.73-5.58,1.74-8.21-.61-9.29-2.16-3.63-5.27,.06-16.86,8.98-28.19,12.36-15.7,31.02-25.21,31.81-25.61,.24-.12,.5-.2,.76-.24h0c.27-.04,.55-.03,.83,.03,.19,.04,.38,.11,.56,.19,0,0,0,0,0,0,.3,.15,.56,.35,.77,.6,0,0,0,0,0,0,11.21,13.2,18.2,55.35,10.84,65.36-1.26,1.72-2.94,2.61-4.81,2.61Zm-6.2-59.34c-2.12,22.69-1.82,51.25,5.36,54.29,.93,.39,1.27,.23,1.75-.42,4.85-6.6,.92-38.11-7.11-53.87Zm-7.27-1c-6.44,4.08-16.25,11.18-23.5,20.39-8.44,10.73-10.53,19.92-8.79,22.44,.7,1.01,2.48,.71,3.86,.29,6.35-1.98,19.57-25.17,28.44-43.12Z"/></g></g><g><path class="cls-31" d="M702.34,1188.62s4.71,45.27,1.92,58c-2.79,12.74,21.65,16.18,45.53,11.1,25.48-5.41,50.47-18.71,51.8-28.26,1.33-9.56-2.71-52.12-2.71-52.12l-96.55,11.28Z"/><path class="cls-17" d="M847.6,1087.07c7.09-12.98,26.59-25.01,37.98-4.17,11.55,21.11-16.04,62.6-39.81,58.15-17.95-3.36-4.05-43.22,1.82-53.98Z"/><path class="cls-17" d="M715.17,1212.83c-40.37-5.86-80.3-43.77-82.53-86.66-2.23-42.9-2.1-146.26,114.54-137.78,116.64,8.48,114.03,111.26,107.29,146.26-6,31.14-26.73,94.52-139.3,78.18Z"/><path class="cls-11" d="M776.91,1149.43s-61.9-6.18-88.74-3.75c0,0-7.31,49.87,37.54,54.35,51.13,5.11,52.76-33.3,51.2-50.6Z"/><g><g><path class="cls-3" d="M626.07,1127.44c-.68,0-1.36-.21-1.94-.65-1.41-1.07-1.69-3.09-.62-4.5l7.14-9.4c1.07-1.41,3.09-1.69,4.5-.62,1.41,1.07,1.69,3.09,.62,4.5l-7.14,9.4c-.63,.83-1.59,1.27-2.56,1.27Z"/><path class="cls-3" d="M638.08,1127.52c-.68,0-1.36-.21-1.94-.65-1.41-1.07-1.69-3.09-.62-4.5l7.14-9.4c1.07-1.41,3.09-1.69,4.5-.62,1.41,1.07,1.69,3.09,.62,4.5l-7.14,9.4c-.63,.83-1.59,1.27-2.56,1.27Z"/><path class="cls-3" d="M650.08,1127.6c-.68,0-1.36-.21-1.94-.65-1.41-1.07-1.69-3.09-.62-4.5l7.14-9.4c1.07-1.41,3.09-1.69,4.5-.62,1.41,1.07,1.69,3.09,.62,4.5l-7.14,9.4c-.63,.83-1.59,1.27-2.56,1.27Z"/></g><g><path class="cls-3" d="M802.03,1134.23c-.58,0-1.17-.16-1.7-.49-1.51-.94-1.97-2.92-1.03-4.43l6.24-10.02c.94-1.5,2.92-1.97,4.43-1.03,1.51,.94,1.96,2.92,1.03,4.43l-6.24,10.02c-.61,.98-1.66,1.51-2.73,1.51Z"/><path class="cls-3" d="M813.99,1133.21c-.58,0-1.17-.16-1.7-.49-1.51-.94-1.96-2.92-1.03-4.43l6.24-10.02c.94-1.5,2.92-1.97,4.43-1.03,1.51,.94,1.96,2.92,1.03,4.43l-6.24,10.02c-.61,.98-1.66,1.51-2.73,1.51Z"/><path class="cls-3" d="M825.95,1132.19c-.58,0-1.17-.16-1.7-.49-1.51-.94-1.96-2.92-1.03-4.43l6.24-10.02c.94-1.51,2.92-1.97,4.43-1.03,1.51,.94,1.96,2.92,1.03,4.43l-6.24,10.02c-.61,.98-1.66,1.51-2.73,1.51Z"/></g></g><path class="cls-9" d="M677.58,961.36c-45.46,22.9-62.31,93.19-53.63,101.94,1.65,1.66,15.31,1.97,33.96-3.8,9.52-2.94,41.86-52.3,41.86-52.3-8.72,23.33-22.56,39.7-28.9,55.7,8.93,.96,29.4-3.71,33.24-6.72,11.17-8.75,28.49-17.3,43.13-51.36,4.04,13.4,17.46,38.46,26.03,48.03,13.72,15.31,38.04,23.5,49.1,24.81,4.65,.55-23.43-56.86-18.65-56.4,4.03,.39,41.24,88.24,48.01,89.15,7.46,1,10.65-24.91,12.33-38.61,3.23-26.35-5.3-82.64-40.37-104.09-35.07-21.44-109.27-24.9-146.1-6.34Z"/></g><path class="cls-1" d="M1157.57,1315.54l29.34-240-52.36,20.8-90.11,143.43-207.88-20.19-58.71,61.07v66.92l60.91,47.03,266.33-8.77,52.48-70.29Zm89.88-143.98l8.59-80.46,33.68,23.66-7.18,33.05-35.09,23.75Z"/><g><g><path class="cls-25" d="M809.16,971.8s30.35-6.34,56.85-3.51c25.42,2.72,35.27,11.6,31.39,26.24-3.88,14.64-11.05,46.25-26.39,44.34-18.92-2.35-55.58-37.05-70.91-42.9l9.06-24.16Z"/><path class="cls-25" d="M803.62,967.51s-53.09-42.05-64.64-41.3c-11.54,.74-9.61,17.41-12.73,25.79-3.12,8.38-14.01,26.09-5.26,33.75,8.75,7.66,75.09,8.33,75.09,8.33l7.54-26.57Z"/></g><g><path class="cls-11" d="M803.94,993.55s30.41,11.67,40.13,15.98c14.5,6.44,34.19,20.34,30.22,25.27s-17.31-3.49-24.06-7.62c-6.75-4.13-40.03-31.24-46.29-33.63Z"/><path class="cls-11" d="M793.84,992.55s-20.62-.6-37.83-2.04c-8.51-.71-16.01-1.3-20.43-2.08-8.54-1.51-15.1-3.31-12.15-8.62,2.31-4.16,16.13-2.17,27.5,.34,5.88,1.3,42.92,12.4,42.92,12.4Z"/></g><g><path class="cls-11" d="M815.29,977.99s26.32-3.82,26.97,.44c.65,4.27-16.9,2.39-26.97-.44Z"/><path class="cls-11" d="M811.64,984.29s23.28,5.77,21.89,10c-1.39,4.23-6.86-.86-11.62-3.29-4.77-2.42-10.27-6.71-10.27-6.71Z"/><path class="cls-11" d="M796.98,973.8s-20.92-16.22-22.93-13.61c-3.47,4.5,16.73,12.27,22.93,13.61Z"/><path class="cls-11" d="M793.53,982.1s-16.34-10.37-21.57-4.34c-3.4,3.92,14.01,1.3,21.57,4.34Z"/></g><path class="cls-11" d="M821.34,970.25c-1.14-2.73-15.83-8.42-26-8.48-4.5-.03-12.28,30.41-9.55,32.13,5.05,3.19,21.74,9.06,26.11,7.09,2.95-1.33,11.17-26.61,9.44-30.74Z"/></g><path class="cls-27" d="M388.65,1689.09c113.6,13.55,502.65,60.41,611.18,72.91,9.48,1.09,45.6-20.29,37.81-76.29-3.71-26.67-27.18-29.56-27.18-29.56,0,0,13.87-11.9,5.77-30.18-9.42-21.27-26.62-15.17-26.62-15.17,0,0,28.61-30.73,1.42-55.72-28.23-25.94-52.72-.96-52.72-.96,0,0,17.34-60.75-42.4-77.39-67.96-18.93-75.63,40.25-75.63,40.25,0,0-14.54-36.53-47.82-29.42-37.3,7.97-34.74,50.78-34.74,50.78,0,0-6.07-13.64-21.93-9.75-11.71,2.87-13.36,12.99-14.15,19.53,0,0,1.93-17.61-9.22-23.47-13.28-6.97-21.37,2.62-21.37,2.62,0,0,12.06-22.26-.38-32.99-17.93-15.48-33.36,1.08-33.36,1.08,0,0-.85-36.29-36.75-39.97-35.91-3.68-49.93,23.66-49.3,38.49,0,0-9.86-40.45-47.1-46.43-45.43-7.3-81.6,27.58-66.07,81.22,0,0-61.82-10.14-78.42,32.79-26.89,69.55-9.51,123.05,28.97,127.64Z"/></g><g><path class="cls-17" d="M1020.99,1262.72c-47.06-6.77-83.98-11.05-136.75-18.69-46.16-6.68-61.66,12.89-62.42,46.47-.67,29.57,15.28,46.14,53.17,54.59,4.26,.95,203.22,18.46,220.76,18.48,23.68,.03,45.1-21.32,46.71-38.29,1.94-20.43-20.81-37.86-49.92-48.37-20.35-7.35-53.98-11.66-71.55-14.2Z"/><path class="cls-33" d="M1020.99,1262.72c-47.06-6.77-88.92-13.31-141.69-20.95-46.16-6.68-64.31,15.39-65.06,48.98-.67,29.57,12.18,62.43,60.46,68.09,4.33,.51,203.51,4.7,221.05,4.73,23.68,.03,45.1-21.32,46.71-38.29,1.94-20.43-20.81-37.86-49.92-48.37-20.35-7.35-53.98-11.66-71.55-14.2Z"/><path class="cls-17" d="M1208.82,1142.99c1.72-8.65-4.48-18.78-10.66-25.74-6.18-6.96-.44-13.26-.34-21.27,.1-8.01-9.5-9.37-13.66-3.52-4.16,5.86-8.5,30.35-7.65,39.48,.86,9.14,1.37,19.21,12.79,23.77,8.25,3.3,17.76-3.86,19.53-12.72Z"/><path class="cls-17" d="M1186.36,1135.67c-10.63,15-105.15,126.3-117.23,143.65-41.79,60.02,34.79,108.68,69.35,58.96,3.99-5.75,63.36-106.41,93.61-151.93,8.41-12.65,41.35-47.76,47.8-57.63,5.16-7.91-5.5-17.29-10.38-13.25-6.91,5.72-15.58,15.16-15.58,15.16,0,0,5.64-7.34,11.78-17.01,3.68-5.8-7.23-15.72-11.71-10.79-7.91,8.7-14.41,15.02-14.41,15.02,0,0,9.87-11.33,10.78-19.49,.39-3.49-6.57-7.91-9.81-7.08-6.02,1.54-15.61,16.4-15.61,16.4,2.76-5.04,7.95-12.35,9.11-18.91,.72-4.08-7.81-8.23-11.42-5.14-9.73,8.36-17.57,25.62-36.28,52.02Z"/><path class="cls-33" d="M1155.08,1161.18c-10.63,14.99-73.88,100.79-85.96,118.14-41.79,60.02,34.79,108.68,69.35,58.96,3.99-5.75,60.32-86.39,90.58-131.9,8.41-12.65-55.27-71.6-73.98-45.2Z"/><path class="cls-10" d="M1219.4,1217.81c-.86,0-1.69-.46-2.13-1.27-19.11-35.18-62.49-47.4-62.92-47.52-1.29-.35-2.05-1.69-1.7-2.98,.35-1.29,1.68-2.05,2.98-1.7,1.86,.51,45.82,12.9,65.9,49.88,.64,1.18,.2,2.65-.97,3.28-.37,.2-.76,.29-1.15,.29Z"/></g></g><g id="Butterfly2"><g><g><path class="cls-26" d="M545.3,638.03s111.73-11.09,117.29,36.06c5.95,50.46-69.12,47.68-80.79,60.48-16.12,17.67-2.26,72.29-41.98,78.91-53.29,8.9-71.68-65.79-74.8-101.04l80.28-74.42Z"/><g><path class="cls-32" d="M601.37,714.36c20.52-2.49,54.14-9.19,48.39-25.91-5.73-16.67-34.45-11.83-55.13-11.47-28.31,.51-82.47,6.27-80.83,14.14,2.93,14.03,35.51,29.55,87.57,23.24Z"/><path class="cls-32" d="M529.58,674.18c-3.95-4.02,19.38-20.44,34.11-26.31,14.73-5.86,34.42-7.97,36.22,2.22,1.79,10.2-58.73,35.88-70.33,24.09Z"/><path class="cls-32" d="M589.41,670.62c-4.93-2.69,18.28-14.91,27.68-18.82,9.4-3.9,23.52-2.97,25.2,6.58,1.67,9.56-41.73,18.33-52.87,12.23Z"/><path class="cls-32" d="M502.11,696.95c7.58-5.05,28.53,34.16,41.35,63.88,12.83,29.72,6.58,47.46-14.47,45.24-21.04-2.23-42.82-98.49-26.88-109.12Z"/><path class="cls-32" d="M523.62,709.64c4.55-2.46,16.31,3.61,31.71,24.81,15.4,21.19,10.47,44.45,.82,39.28-4.86-2.61-8.77-19.13-17.13-35.65-7.53-14.88-17.9-27.08-15.4-28.44Z"/><path class="cls-32" d="M491.61,769.36c8.01-.87,4.27-19.67,3.14-29.45-1.45-12.41-.37-40.12-6.15-37.71-8.49,3.54-10.01,20.82-9.26,33.86,.74,13.03,3.21,34.27,12.28,33.29Z"/><path class="cls-32" d="M550.38,719.37c.68-3.23,32.04-1.49,34.79,2,3.06,3.89-6.81,11.17-19.79,7.75-12.96-3.42-15.78-6.05-15.01-9.76Z"/><path class="cls-32" d="M494.2,772.74c3.89-2.72,9.42,2.86,12.56,12.03,3.14,9.17-2.73,13.08-8.18,8.1-5.46-4.98-8.37-17.34-4.38-20.13Z"/></g></g><g><path class="cls-26" d="M533.69,627.51s8.42-109.59-39.89-113.8c-51.7-4.51-46.92,68.86-59.69,80.61-17.64,16.22-73.79,4.09-79.52,43.11-7.7,52.36,69.07,68.41,105.16,70.54l73.94-80.47Z"/><g><path class="cls-32" d="M454.26,574.65c2.01-20.14,7.98-53.2,25.21-48.01,17.18,5.17,12.99,33.39,13.15,53.64,.22,27.71-4.26,80.84-12.35,79.43-14.41-2.5-31.11-33.96-26.01-85.06Z"/><path class="cls-32" d="M497.18,643.83c4.21,3.76,20.38-19.49,25.99-34.05,5.6-14.56,7.24-33.88-3.21-35.37-10.46-1.49-35.12,58.38-22.78,69.42Z"/><path class="cls-32" d="M499.26,585.21c2.88,4.75,14.76-18.26,18.5-27.56,3.74-9.3,2.42-23.08-7.38-24.48-9.81-1.39-17.64,41.29-11.12,52.04Z"/><path class="cls-32" d="M474.62,671.29c4.96-7.54-35.64-27.02-66.34-38.79-30.69-11.78-48.66-5.2-45.84,15.33,2.82,20.53,101.73,39.33,112.18,23.46Z"/><path class="cls-32" d="M461.1,650.58c2.39-4.52-4.12-15.86-26.17-30.38-22.05-14.52-45.69-9.08-40.14,.22,2.79,4.68,19.77,8.08,36.87,15.83,15.4,6.98,28.13,16.8,29.45,14.32Z"/><path class="cls-32" d="M400.93,683.45c.68-7.86,19.98-4.69,30-3.83,12.72,1.1,40.99-.68,38.69,5.03-3.4,8.39-21.01,10.33-34.35,9.94-13.33-.39-35.1-2.25-34.33-11.14Z"/><path class="cls-32" d="M450.47,624.66c3.28-.75,.69-31.38-2.95-33.98-4.05-2.89-11.24,6.96-7.4,19.56,3.83,12.59,6.6,15.28,10.36,14.43Z"/><path class="cls-32" d="M397.41,681c2.67-3.88-3.16-9.14-12.61-11.97-9.45-2.83-13.29,3.01-8.06,8.21,5.23,5.21,17.93,7.74,20.67,3.76Z"/></g></g><g><path class="cls-8" d="M543.01,633.44c-.57,0-1.16-.16-1.67-.5-1.4-.93-1.79-2.81-.86-4.21,13.28-20.12,31.2-55.43,22.78-64.5-2.98-3.22-6.27-4.37-9.76-3.43-5.23,1.41-9.8,7.04-10.79,11.43-.37,1.64-2.01,2.66-3.64,2.3-1.64-.37-2.67-2-2.3-3.64,1.41-6.22,7.46-13.89,15.14-15.96,5.68-1.53,11.29,.31,15.8,5.17,14.4,15.51-18.38,66.25-22.17,71.99-.58,.89-1.55,1.37-2.54,1.37Z"/><path class="cls-8" d="M545.43,639.93c-.2,0-.4-.08-.55-.24-.28-.3-.27-.78,.04-1.06,1.96-1.83,48.11-44.67,65.06-34.38,6.27,3.8,7.28,8.69,7.03,12.12-.51,6.91-6.51,13.58-11.78,15.79-.38,.16-.82-.02-.98-.4-.16-.38,.02-.82,.4-.98,4.86-2.04,10.39-8.17,10.86-14.52,.32-4.32-1.86-8.03-6.31-10.73-15.99-9.7-62.78,33.75-63.26,34.19-.14,.14-.33,.2-.51,.2Z"/><path class="cls-9" d="M514.99,695.72c27.47-24.75,50.29-54.18,35.4-66.45-21.26-17.53-118.3,75.4-106.49,89.05,13.64,15.76,39.74,5.64,71.09-22.6Z"/></g></g></g><g id="Butterfly1"><g><g><path class="cls-26" d="M584.63,1535.9s63.27-116.99,113.22-91.16c53.46,27.65,.92,99.47,5.73,119.41,6.65,27.54,69.43,50.19,49.57,93.56-26.64,58.2-112.12,26.68-148.78,6.34l-19.75-128.16Z"/><g><path class="cls-32" d="M696.73,1531.54c11.18-21.79,26.91-59.22,6.69-64.68-20.16-5.44-34.47,25.95-47.84,46.49-18.29,28.11-48.58,85.08-39.76,88.69,15.72,6.44,52.56-15.23,80.91-70.5Z"/><path class="cls-32" d="M609.66,1575.31c-6.57,1.21-7.2-32.58-3.17-50.93,4.02-18.34,15.03-39.07,26.22-34.06,11.19,5.01-3.77,81.44-23.04,84.99Z"/><path class="cls-32" d="M645.87,1514.24c-5.91,3.05-2.5-27.83-.1-39.65,2.41-11.82,12.69-25.05,23.18-20.35,10.49,4.7-9.71,53.1-23.08,60Z"/><path class="cls-32" d="M613.78,1617.38c.08-10.78,52.45-5.32,90.13,1.82,37.68,7.13,50.94,25.05,34.79,44.22-16.15,19.17-125.06-23.35-124.91-46.04Z"/><path class="cls-32" d="M640.5,1604.69c.61-6.1,14.37-13.61,45.39-14.65,31.02-1.05,50.56,19.23,39.08,25.26-5.78,3.04-24.59-4.09-46.35-6.85-19.6-2.49-38.45-.41-38.12-3.76Z"/><path class="cls-32" d="M677.85,1675.73c4.47-8.44-16.47-17.25-26.81-22.62-13.14-6.81-39.61-26.26-41.08-18.99-2.16,10.68,13.79,23.64,27.08,31.56,13.28,7.92,35.76,19.59,40.82,10.05Z"/><path class="cls-32" d="M667.8,1584.89c-2.72-2.81,19.8-32.43,25.06-32.81,5.84-.42,6.44,14.1-5.53,24.56-11.96,10.45-16.41,11.47-19.53,8.25Z"/><path class="cls-32" d="M682.89,1675.43c-.08-5.62,9.06-7.35,20.14-4.34,11.08,3,11.03,11.36,2.52,13.4-8.51,2.05-22.57-3.29-22.66-9.06Z"/></g></g><g><path class="cls-26" d="M566.6,1540.3s-101.94-80.99-138.13-36.38c-38.73,47.74,36.43,91.73,39.48,112.06,4.22,28.07-44.95,75.12-10.47,106.64,46.27,42.31,112.96-22.37,139.01-56.37l-29.88-125.95Z"/><g><path class="cls-32" d="M462.01,1583.17c-18.43-15.34-46.9-43.14-30.38-56.6,16.48-13.42,41.38,9.42,61.35,22.69,27.33,18.17,76.49,57.82,69.75,64.83-12.02,12.48-53.97,7.98-100.72-30.92Z"/><path class="cls-32" d="M558.38,1586.96c6.48-1.64-5.6-32.93-16.17-48.1-10.56-15.16-28.44-29.59-36.84-20.32-8.41,9.28,33.98,73.21,53,68.42Z"/><path class="cls-32" d="M502.24,1546.02c6.57,.33-8.13-26.6-14.77-36.45-6.64-9.84-21.04-17.7-28.91-9-7.87,8.7,28.81,44.71,43.68,45.45Z"/><path class="cls-32" d="M570.36,1627.32c-4.11-9.87-50.16,17.04-82.09,39.35-31.93,22.3-37.39,44.3-15.38,55.16,22.01,10.85,106.1-73.72,97.46-94.5Z"/><path class="cls-32" d="M541.06,1626.84c-2.84-5.35-18.29-6.49-47.18,5.52-28.88,12-39.23,38.8-26.42,39.54,6.45,.37,21.05-14.03,40-25.67,17.07-10.48,35.16-16.45,33.6-19.39Z"/><path class="cls-32" d="M533.39,1707.69c-7.26-5.88,8.66-22.72,16.15-31.98,9.52-11.75,26.54-40.67,30.61-34.62,5.98,8.9-3.81,27.47-13.04,40.3-9.23,12.83-25.5,32.94-33.72,26.29Z"/><path class="cls-32" d="M508.58,1620.07c1.45-3.72-30.33-21.5-35.3-19.65-5.52,2.06-.63,15.64,14.28,20.24,14.9,4.6,19.37,3.67,21.03-.59Z"/><path class="cls-32" d="M528.64,1709.53c-2.03-5.2-11.07-2.96-20.12,4.43-9.05,7.39-5.87,15.04,2.71,13.36,8.58-1.67,19.49-12.46,17.41-17.79Z"/></g></g><g><path class="cls-8" d="M575.62,1536.68c-1.41,0-2.75-.84-3.33-2.23-10.93-26.38-33.76-67.39-48.17-65.16-5.14,.79-8.45,3.25-9.84,7.3-2.09,6.06,.41,14.29,4.05,18.17,1.36,1.45,1.29,3.73-.16,5.09-1.45,1.36-3.73,1.29-5.09-.16-5.17-5.51-8.68-16.54-5.61-25.45,2.27-6.58,7.79-10.87,15.55-12.07,24.8-3.84,52.81,62.01,55.93,69.53,.76,1.84-.11,3.94-1.95,4.71-.45,.19-.92,.28-1.38,.28Z"/><path class="cls-8" d="M585.84,1537.28c-.36,0-.68-.26-.74-.63-.5-3.13-11.88-76.74,9.37-86.5,7.83-3.6,13.24-1.37,16.41,1.13,6.41,5.06,8.95,15.31,7.63,21.9-.08,.41-.48,.67-.88,.59-.41-.08-.67-.48-.59-.88,1.23-6.16-1.13-15.73-7.09-20.43-4.07-3.22-9.21-3.54-14.86-.94-20.22,9.29-8.63,84.15-8.51,84.9,.06,.41-.22,.79-.62,.86-.04,0-.08,0-.12,0Z"/><path class="cls-9" d="M621.11,1603.93c-6.06-43.38-19.78-85.3-41.71-78.84-31.31,9.23-4.52,166.12,16.71,163.59,24.51-2.92,31.91-35.24,25-84.75Z"/></g></g><g><circle cx="679.29" cy="1097.75" r="16.57"/><circle class="cls-5" cx="684.92" cy="1094.07" r="4.38"/></g><g><circle cx="770.86" cy="1100.96" r="16.57"/><circle class="cls-5" cx="776.49" cy="1097.28" r="4.38"/></g></g></svg>